<svg xmlns="http://www.w3.org/2000/svg" width="500" height="500" viewBox="-100 -100 200 200"><defs><clipPath id="c"><path d="m27.03-2.63-.11-.34-.16-.34-.2-.34-.25-.33-.29-.34-.32-.32-.37-.33-.39-.32-.43-.31-.47-.31-.49-.29-.51-.29-.55-.28-.56-.27-.59-.26-.71-.38-.73-.36-.76-.34-.77-.33-.8-.3-.81-.28-.82-.26-.84-.24-.85-.22-.86-.19-.86-.18-.87-.15-.87-.13-.88-.1-.87-.09-.87-.06-.88-.04-.86-.02h-.87l-.85.02-.85.03-.84.06-.83.07-.82.09-.81.11-.8.12-.78.14-.77.15-.75.17-.74.17-.72.19-.71.2-.69.21-.68.21-.66.23-.64.23-.62.24-.6.24-.59.25-.57.25-.55.26-.54.26-.52.26-.5.26-.48.27-.47.26-.46.26-.43.27-.43.26-.41.26-.39.26-.38.26-.37.25-.36.26-.34.26-.34.25-.32.26-.3.25-.3.25-.28.25-.28.24-.26.25-.25.24-.24.24-.08 6.76.25.23.26.24.26.24.28.23.29.24.29.23.31.23.31.23.33.22.34.22.34.22.36.22.37.21.38.2.39.2.41.2.42.19.43.19.44.18.46.17.47.17.49.16.5.14.52.14.53.13.55.11.56.1.58.09.59.07.61.06.62.04.64.03.66.01h.67l.68-.02.7-.04.72-.05.73-.07.74-.08.75-.1.77-.12.78-.13.79-.14.81-.16.81-.17.82-.19.83-.2.84-.21.85-.23.85-.23.85-.24.86-.26.86-.26.87-.27.86-.27.86-.28.85-.29.85-.29.85-.29.83-.3.83-.3.81-.3.8-.3.78-.3.63-.29.61-.3.59-.31.57-.31.55-.32.53-.32.5-.33.47-.34.44-.34.41-.35.37-.36.34-.36.3-.37.25-.38.21-.39"/></clipPath><clipPath id="b"><path d="m-29-2.48.18-.32.21-.33.25-.33.29-.32.32-.32.35-.31.38-.31.42-.3.44-.3.48-.29.5-.28.53-.27.55-.26.58-.26.61-.24.62-.35.66-.34.69-.31.73-.3.76-.28.8-.26.82-.24.86-.22.88-.2.9-.18.92-.16.95-.14.96-.12.97-.09.99-.08 1-.06 1-.03 1.02-.02h1.01l1.01.01 1.02.04 1.01.05 1 .07 1 .08.99.1.98.11.96.12.96.14.93.15.92.15.9.17.89.18.86.19.84.19.82.2.8.21.78.21.75.21.73.22.7.23.68.22.66.23.64.23.61.23.59.23.57.23.54.23.53.22.5.23.49.22.47.22.46.22.43.22.42.22.4.22.39.21.36.21.36.22.34.2.32.21.31.2.29.2.29.2.26.2-.56 6.32-.27.22-.29.23-.29.22-.31.22-.33.23-.33.22-.35.22-.37.22-.38.22-.39.21-.41.21-.42.21-.44.21-.46.2-.47.2-.48.2-.51.19-.52.19-.54.19-.56.18-.58.17-.6.17-.63.16-.64.15-.66.14-.68.13-.7.12-.73.11-.74.1-.77.09-.78.07-.8.06-.82.05-.83.03-.86.02h-.86l-.89-.01-.89-.03-.91-.04-.92-.05-.93-.07-.93-.09-.95-.1-.95-.11-.95-.13-.95-.14-.96-.15-.95-.17-.95-.18-.94-.19-.94-.2-.93-.21-.92-.23-.9-.23-.89-.24-.88-.25-.86-.26-.83-.27-.82-.27-.79-.28-.77-.28-.74-.29-.72-.29-.68-.29-.63-.27-.62-.27-.6-.28-.57-.29-.55-.29-.53-.29-.51-.31-.48-.31-.45-.31-.43-.32-.4-.32-.37-.34-.34-.33-.3-.35-.28-.34"/></clipPath><filter id="a"><feTurbulence baseFrequency=".05" numOctaves="3" result="noise" type="noise"/><feDisplacementMap in="SourceGraphic" in2="noise" scale="2"/></filter></defs><rect width="100%" height="100%" x="-100" y="-100" fill="#A6F2C9"/><path fill="#DF2087" stroke="#000" stroke-linejoin="round" stroke-width="1.667" d="m65.89.34.04 1.39-.18 2.64-.01-.4-.12 2.65.06-1.44v3.36l-.21.76-.11.41-.35 4.1.37-2.81-.26 2.87-.28 1.99-.23-.09.07.81-.37 1.71-.52 2.69-.34 2.49.04-.39-.16.97-.68 1.95.28-.7-.99 3.06-.6 2.34.19.02-.24.49-.81 2.62-.24.41-.65 1.94-.18.1-.68 2.2-.28.31-1.12 2.8.64-1.72-1.82 4.18-.77 1.71-.06.33.02-.14-.86 1.47-1.19 2.43.14-.19-.34.63-.54.91-1.29 2.08-.24.25-.51.76-1.36 2.08-1.03 1.21-.68 1.02.81-.96-2.56 3.29-.11.1.71-1.01-1.7 2.49-1.07.94-.15.15-1.53 1.88.23-.26-1.17 1.06-.69.78-.79.54-.67.75-2.49 2.11.69-.53-1.48 1.39-.95.55.08-.17-2.85 2.45.7-.32-.84.19-2.36 1.95-.76.42-1.74.93-.38.36-.69.05-.08.51-1.68.47-.3.39-.16.12-1.34.68-1.3.38-.64.2-1.72.63-1.36.42-.15.4-1.43-.02-1.57.9.8-.54-1.21.53-1.96.24.36.18-2.56.41-1.16.2-1.07.06-1.33.47h.12l-2.34.26-.7-.25-1.15.13-1.4.28-1.42-.38-.34.11-1.74-.17 1.27.06-3.21-.01.63.11-2.61-.39.67-.13-2.37.04-1.48-.67-.89.06-.69-.44-.7-.04-.82-.3-1.64-.33-.6-.35-1.86-.22.73.16-2.32-1.16 1.03.76-2.69-1-1.02-.71.07-.15-.74-.03-1.43-.9-.63-.1-.25-.02-1.39-.65-2.61-1.66 1.19.52-2.31-1.59-2.12-1.26 1.21.73-3.12-2.37.04.01-.48.16-1.34-1.37.19.13-2.06-1.88-1.33-1.1.63.82-1.57-1.62-.18-.14-2.07-2.44-.44-.22-.07-.31-.82-1.03-.32-.04-1.55-1.96-.88-1.05-.65-.55-.58-.87-.58-.79-.92-.93-.36-1.1-1.74-2.17.4-.06-1.28-1.54.01.21-1.55-2.52.36.45-.67-1.62-1.8-3.12.14.03-.45-.46-.14-.94-1.11-1.91-.02-.1-1.4-3.24.63 1.36-1.47-3.45-.46-1.11-.3-.99-.65-2.11.37 1.24.04.13-.61-1.71-1.17-3.94.13.38-.48-2.07.2.54-.5-1.93-.58-1.65-.21-1.04-.25-1.74-.46-2.03.13.33.01.33-.54-2.51-.35-3.5-.11-.53.03-.35-.22-1-.08-2.28-.28-1.53-.09-2.61-.01-.39-.02.02-.15-1.23.06-.73.04-2.92-.17-.44.27-1.72-.16-2.14.3-2.47-.03-.37.07-.93-.1-.76.2-1.99.04 1.29.18-3.44.24-.78.44-2.34.29-1.76-.2.76.29-2.53.25-.92.37-1.97.12-.29.62-2.93.11.05-.03-.39.14-.68 1-3.3.54-1.32.17-.96.83-2.92-.22 1.34.88-2.58.98-2.75-.64 1.94 1.42-3.57-.02.12-.47.65 1.2-2.73 1.31-2.67-.28.73 1.4-2.71.2-.08.94-1.9-.18.28.84-1.67.88-1.29-.55.79.52-.94 1.99-2.89 1.01-1.76.38-.57.08.19.64-.88.56-.77 1.3-1.57.28-.63 1.67-2.1 1.59-1.47-.56.69.79-.93-.42.47 1.14-1.27 2.22-2.43.84-.26 1.09-1.34 1.31-1.03.73-.54-.33.18 1.03-.57.79-.75.5-.31 1.84-1.3v-.01l.37-.22 1.62-1.33 2.75-1.71-.16.14-.34.3 1.88-1.2.41-.19 1.02-.23.54-.71 2.07-.81.2.04 2.49-.94-.15.21.46-.38 1.08-.51 1.12-.2 2.18-.54.36-.45 1.8-.08-.86-.02 1.49-.32 2.13-.43.25.1.24-.15 2.15-.15-.09-.28 1.67-.23.17.33 1.63-.4 2-.15 1.66.16-.74-.04 1.41-.08 1.07.17 1 .05 3.17.3-.44.17.74-.06 1.13.33.9-.25.75.38 2.34.29 1.18.51.65-.07.07.28 2.01.79-.23-.39 2.02.8 2.08.83-.77-.51-.57.12 3.47 1.13.37.03.55.28 1.13.57 1.52.85.3.47 1.81 1.04-.07.04 2.12 1.18.27.18.91.27.15.26 1.26 1.09.62.24.1-.09 1.46 1.61 1.11.77.94.71.55.22.67.84 1.84 1.55.34.71 1.38 1-.42-.04 2.03 1.98.41.48 1.39 1.6.55.41 1.1 1.72.47.55.07-.4 1.85 2.55.41.66 1.16 1.81-.5-.58.62.75 1.37 2.3.1.06.19.21 1.42 2.75 1.08 1.93.26.21.51 1.44.43.76-.03.05.9 1.75.12.28 1.04 1.98.13.69.73 2.04.83 1.93-.06.14.06-.31.73 2.12.34 1.23.19.29.82 2.24.11 1.05.52 1.41.28 1.54.36 1.41.18.76.47 1.55.61 3.11.29 2.17-.26-1.9.23 2.49-.05-.72.28 1.77.33 1.2.53 4.72-.32-1.89.34 3.21.07 1.76-.02-.12.27 2.03.01.48.04 2.68.08.53-.14 1.43.04 1.39" filter="url(#a)"/><path fill="#fff" d="m-29-2.48.18-.32.21-.33.25-.33.29-.32.32-.32.35-.31.38-.31.42-.3.44-.3.48-.29.5-.28.53-.27.55-.26.58-.26.61-.24.62-.35.66-.34.69-.31.73-.3.76-.28.8-.26.82-.24.86-.22.88-.2.9-.18.92-.16.95-.14.96-.12.97-.09.99-.08 1-.06 1-.03 1.02-.02h1.01l1.01.01 1.02.04 1.01.05 1 .07 1 .08.99.1.98.11.96.12.96.14.93.15.92.15.9.17.89.18.86.19.84.19.82.2.8.21.78.21.75.21.73.22.7.23.68.22.66.23.64.23.61.23.59.23.57.23.54.23.53.22.5.23.49.22.47.22.46.22.43.22.42.22.4.22.39.21.36.21.36.22.34.2.32.21.31.2.29.2.29.2.26.2-.56 6.32-.27.22-.29.23-.29.22-.31.22-.33.23-.33.22-.35.22-.37.22-.38.22-.39.21-.41.21-.42.21-.44.21-.46.2-.47.2-.48.2-.51.19-.52.19-.54.19-.56.18-.58.17-.6.17-.63.16-.64.15-.66.14-.68.13-.7.12-.73.11-.74.1-.77.09-.78.07-.8.06-.82.05-.83.03-.86.02h-.86l-.89-.01-.89-.03-.91-.04-.92-.05-.93-.07-.93-.09-.95-.1-.95-.11-.95-.13-.95-.14-.96-.15-.95-.17-.95-.18-.94-.19-.94-.2-.93-.21-.92-.23-.9-.23-.89-.24-.88-.25-.86-.26-.83-.27-.82-.27-.79-.28-.77-.28-.74-.29-.72-.29-.68-.29-.63-.27-.62-.27-.6-.28-.57-.29-.55-.29-.53-.29-.51-.31-.48-.31-.45-.31-.43-.32-.4-.32-.37-.34-.34-.33-.3-.35-.28-.34" filter="url(#a)" transform="translate(45.67 -27.45)"/><path fill="#fff" d="m27.03-2.63-.11-.34-.16-.34-.2-.34-.25-.33-.29-.34-.32-.32-.37-.33-.39-.32-.43-.31-.47-.31-.49-.29-.51-.29-.55-.28-.56-.27-.59-.26-.71-.38-.73-.36-.76-.34-.77-.33-.8-.3-.81-.28-.82-.26-.84-.24-.85-.22-.86-.19-.86-.18-.87-.15-.87-.13-.88-.1-.87-.09-.87-.06-.88-.04-.86-.02h-.87l-.85.02-.85.03-.84.06-.83.07-.82.09-.81.11-.8.12-.78.14-.77.15-.75.17-.74.17-.72.19-.71.2-.69.21-.68.21-.66.23-.64.23-.62.24-.6.24-.59.25-.57.25-.55.26-.54.26-.52.26-.5.26-.48.27-.47.26-.46.26-.43.27-.43.26-.41.26-.39.26-.38.26-.37.25-.36.26-.34.26-.34.25-.32.26-.3.25-.3.25-.28.25-.28.24-.26.25-.25.24-.24.24-.08 6.76.25.23.26.24.26.24.28.23.29.24.29.23.31.23.31.23.33.22.34.22.34.22.36.22.37.21.38.2.39.2.41.2.42.19.43.19.44.18.46.17.47.17.49.16.5.14.52.14.53.13.55.11.56.1.58.09.59.07.61.06.62.04.64.03.66.01h.67l.68-.02.7-.04.72-.05.73-.07.74-.08.75-.1.77-.12.78-.13.79-.14.81-.16.81-.17.82-.19.83-.2.84-.21.85-.23.85-.23.85-.24.86-.26.86-.26.87-.27.86-.27.86-.28.85-.29.85-.29.85-.29.83-.3.83-.3.81-.3.8-.3.78-.3.63-.29.61-.3.59-.31.57-.31.55-.32.53-.32.5-.33.47-.34.44-.34.41-.35.37-.36.34-.36.3-.37.25-.38.21-.39" filter="url(#a)" transform="translate(-40.53 -21.86)"/><g fill="none" stroke="#000" transform="translate(45.67 -27.45)"><path stroke-linejoin="round" stroke-width="1.667" d="m-28.65.62-.22-.27-.17-.29-.14-.3-.09-.3-.06-.31-.01-.32.03-.32.06-.33.11-.33.14-.33.18-.32.21-.33.25-.33.29-.32.32-.32.35-.31.38-.31.42-.3.44-.3.48-.29.5-.28.53-.27.55-.26.58-.26.61-.24.62-.35.66-.34.69-.31.73-.3.76-.28.8-.26.82-.24.86-.22.88-.2.9-.18.92-.16.95-.14.96-.12.97-.09.99-.08 1-.06 1-.03 1.02-.02h1.01l1.01.01 1.02.04 1.01.05 1 .07 1 .08.99.1.98.11.96.12.96.14.93.15.92.15.9.17.89.18.86.19.84.19.82.2.8.21.78.21.75.21.73.22.7.23.68.22.66.23.64.23.61.23.59.23.57.23.54.23.53.22.5.23.49.22.47.22.46.22.43.22.42.22.4.22.39.21.36.21.36.22.34.2.32.21.31.2.29.2.29.2.26.2.26.19.24.19.23.19.22.18.21.18.2.18.19.17.18.18.17.17.16.16" filter="url(#a)"/><path stroke-linejoin="round" stroke-width="2.222" d="m-29.53-3.52-.1.42-.06.42-.02.4.02.4.07.39.09.38.14.38.17.37.21.36.24.36.28.34.3.35.34.33.37.34.4.32.43.32.45.31.48.31.51.31.53.29.55.29.57.29.6.28.62.27.63.27.68.29.72.29.74.29.77.28.79.28.82.27.83.27.86.26.88.25.89.24.9.23.92.23.93.21.94.2.94.19.95.18.95.17.96.15.95.14.95.13.95.11.95.1.93.09.93.07.92.05.91.04.89.03.89.01h.86l.86-.02.83-.03.82-.05.8-.06.78-.07.77-.09.74-.1.73-.11.7-.12.68-.13.66-.14.64-.15.63-.16.6-.17.58-.17.56-.18.54-.19.52-.19.51-.19.48-.2.47-.2.46-.2.44-.21.42-.21.41-.21.39-.21.38-.22.37-.22.35-.22.33-.22.33-.23.31-.22.29-.22.29-.23.27-.22.26-.22.25-.22.24-.22.23-.22.21-.22.21-.21.2-.22.18-.21.18-.21.17-.21" filter="url(#a)"/><circle cx="-3.367" cy="-.217" r="4.27" clip-path="url(#b)" filter="url(#a)"/><circle cx="-1.582" cy="-.262" r="4.842" clip-path="url(#b)" filter="url(#a)"/><circle cx="-1.622" cy="-.312" r="3.368" clip-path="url(#b)" filter="url(#a)"/><circle cx="-.492" cy=".453" r="3.268" clip-path="url(#b)" filter="url(#a)"/><circle cx="-4.657" cy="-1.822" r="3.058" clip-path="url(#b)" filter="url(#a)"/><circle cx="-.202" cy=".218" r="3.158" clip-path="url(#b)" filter="url(#a)"/><circle cx="-.482" cy=".048" r="3.99" clip-path="url(#b)" filter="url(#a)"/><circle cx="-.142" cy=".323" r="3.604" clip-path="url(#b)" filter="url(#a)"/><circle cx=".243" cy="-2.077" r="4.082" clip-path="url(#b)" filter="url(#a)"/><circle cx="-1.257" cy="-3.197" r="3.944" clip-path="url(#b)" filter="url(#a)"/></g><g fill="none" stroke="#000" transform="translate(-40.53 -21.86)"><path stroke-linejoin="round" stroke-width="2.222" d="m24.89.46.52-.26.44-.28.38-.29.3-.3.23-.31.17-.32.11-.33.05-.33v-.33l-.06-.34-.11-.34-.16-.34-.2-.34-.25-.33-.29-.34-.32-.32-.37-.33-.39-.32-.43-.31-.47-.31-.49-.29-.51-.29-.55-.28-.56-.27-.59-.26-.71-.38-.73-.36-.76-.34-.77-.33-.8-.3-.81-.28-.82-.26-.84-.24-.85-.22-.86-.19-.86-.18-.87-.15-.87-.13-.88-.1-.87-.09-.87-.06-.88-.04-.86-.02h-.87l-.85.02-.85.03-.84.06-.83.07-.82.09-.81.11-.8.12-.78.14-.77.15-.75.17-.74.17-.72.19-.71.2-.69.21-.68.21-.66.23-.64.23-.62.24-.6.24-.59.25-.57.25-.55.26-.54.26-.52.26-.5.26-.48.27-.47.26-.46.26-.43.27-.43.26-.41.26-.39.26-.38.26-.37.25-.36.26-.34.26-.34.25-.32.26-.3.25-.3.25-.28.25-.28.24-.26.25-.25.24-.24.24-.23.23-.22.24-.21.23-.2.23-.19.23-.19.22-.17.22-.16.22-.16.22-.14.21" filter="url(#a)"/><path stroke-linejoin="round" stroke-width="2.222" d="m25.9-4.81.4.51.32.5.25.48.18.46.11.45.06.44-.01.43-.06.42-.11.41-.17.4-.21.39-.25.38-.3.37-.34.36-.37.36-.41.35-.44.34-.47.34-.5.33-.53.32-.55.32-.57.31-.59.31-.61.3-.63.29-.78.3-.8.3-.81.3-.83.3-.83.3-.85.29-.85.29-.85.29-.86.28-.86.27-.87.27-.86.26-.86.26-.85.24-.85.23-.85.23-.84.21-.83.2-.82.19-.81.17-.81.16-.79.14-.78.13-.77.12-.75.1-.74.08-.73.07-.72.05-.7.04-.68.02h-.67l-.66-.01-.64-.03-.62-.04-.61-.06-.59-.07-.58-.09-.56-.1-.55-.11-.53-.13-.52-.14-.5-.14-.49-.16-.47-.17-.46-.17-.44-.18-.43-.19-.42-.19-.41-.2-.39-.2-.38-.2-.37-.21-.36-.22-.34-.22-.34-.22-.33-.22-.31-.23-.31-.23-.29-.23-.29-.24-.28-.23-.26-.24-.26-.24-.25-.23-.23-.24-.23-.23-.22-.24-.22-.23-.2-.23-.19-.23-.19-.23-.18-.23-.17-.22-.16-.22" filter="url(#a)"/><circle cx="14.183" cy="-8.855" r="3.146" clip-path="url(#c)" filter="url(#a)"/><circle cx="13.913" cy="-5.385" r="4.546" clip-path="url(#c)" filter="url(#a)"/><circle cx="11.503" cy="-6.705" r="4.466" clip-path="url(#c)" filter="url(#a)"/><circle cx="14.028" cy="-8.155" r="3.268" clip-path="url(#c)" filter="url(#a)"/><circle cx="11.858" cy="-8.74" r="4.198" clip-path="url(#c)" filter="url(#a)"/><circle cx="13.553" cy="-9.53" r="4.302" clip-path="url(#c)" filter="url(#a)"/><circle cx="14.373" cy="-9.155" r="3.092" clip-path="url(#c)" filter="url(#a)"/><circle cx="14.553" cy="-10.055" r="4.092" clip-path="url(#c)" filter="url(#a)"/><circle cx="12.953" cy="-9.55" r="4.352" clip-path="url(#c)" filter="url(#a)"/><circle cx="15.558" cy="-9.535" r="3.664" clip-path="url(#c)" filter="url(#a)"/></g><g fill="none" stroke="#518613" stroke-linejoin="round" stroke-width="2"><path d="m30.96-74.82.42.43.58.49.52.43.46.42.38.41.24.36.05.26-.16.15-.43.03-.71-.1-1.04-.25-1.42-.44-1.8-.63-2.2-.83-2.56-1.03-2.96-1.27-3.41-1.53-4.01-1.84-4.85-2.19" filter="url(#a)"/><path d="m27.66-76.45 1.46.81.87.47.66.38.57.39.53.38.49.39.42.38.35.36.24.31.11.25-.05.17-.24.08-.46-.03-.7-.16-.97-.31-1.23-.47-1.53-.64-1.83-.81-2.19-1.02-2.61-1.23-3.07-1.47-3.47-1.7-3.82-1.9m-42.15 7.47 1.83-1.19 1.73-.73 1.59-.31 1.67-.1 1.92-.01 2.2.05 2.48.1 2.73.17 2.93.23 3.08.3 3.2.37 3.28.43 3.36.48 3.44.51 3.52.53 3.55.55 3.54.54 3.5.55 3.44.54 3.41.55 3.38.57 3.32.55 3.1.43" filter="url(#a)"/><path d="m-.85-84.64.93.09.53.05.59.07.64.13.57.18.36.22.06.25-.27.29-.59.33-.89.4-1.2.47-1.54.54-1.93.61-2.36.66-2.82.71-3.31.79-3.88.94-4.56 1.18-5.26 1.39m77.96 23.49 1.13 2.16.69 1.34.32.77.05.38-.18.07-.39-.18-.58-.41-.8-.64-1.03-.91-1.3-1.21-1.59-1.6-1.93-2.04-2.29-2.55-2.7-3.06-3.12-3.57-3.59-4.1-4.09-4.68" filter="url(#a)"/><path d="m46.91-59.21.41.35.45.81.06.59-.41.21-.85-.12-1.25-.4-1.64-.64-2.08-.89-2.56-1.16-3.09-1.46-3.67-1.83-4.26-2.27-4.88-2.76-5.55-3.25-6.37-3.69-7.36-4.05m-28.66 1.43.95-.38 1.09-.54 1.19-.52 1.16-.46 1.05-.4.92-.34.8-.29.72-.26.62-.2.47-.14.27-.06v.05l-.31.17-.63.29-.94.43-1.26.55-1.6.68-1.96.82-2.28.92m76.43 25.9.12.24.21.72.12.9-.16.74-.53.41-.93.1-1.3-.19-1.64-.41-1.98-.6-2.33-.76-2.7-.94-3.09-1.15-3.52-1.41-3.97-1.71-4.44-2.03-4.94-2.34-5.47-2.63-6.02-2.88-6.51-3.14-6.92-3.45-7.16-3.86m-15.48-.74.43-.12 1.15-.43 1.47-.46 1.69-.46 1.91-.47 2.07-.45 2.19-.42 2.23-.38 2.26-.35 2.27-.34 2.27-.32 2.27-.33 2.23-.32 2.14-.31 1.99-.28 1.76-.26 1.5-.26 1.2-.26.99-.2" filter="url(#a)"/><path d="m56.87-42.68.58 1.42.05.96-.37.57-.82.08-1.3-.42-1.75-.83-2.22-1.18-2.69-1.5-3.21-1.84-3.76-2.22-4.34-2.64-4.92-3.1-5.51-3.59-6.11-4.14-6.73-4.68-7.35-5.26-8.08-5.83m34.75 3.56 1.31 1.31 1.18 1.06 1.12.98 1.13 1.03 1.15 1.12 1.16 1.15 1.11 1.15 1.03 1.07.92.97.8.83.64.69.47.49.24.26-.04-.06-.37-.44-.76-.84-1.2-1.3m-70.07-13.1 1.48-.82 1.34-.52 1.52-.47 1.75-.48 1.97-.47 2.1-.43 2.15-.41 2.17-.37 2.18-.36 2.21-.36 2.23-.36 2.19-.35 2.05-.33 1.84-.31 1.6-.27 1.39-.24 1.25-.2 1.07-.14" filter="url(#a)"/><path d="m-37.2-69.8 1.14-.76 1.05-.42 1.23-.31 1.55-.33 1.85-.36 2.14-.4 2.38-.41 2.6-.41 2.8-.42 2.97-.41 3.07-.38 3.14-.34 3.19-.27 3.24-.23 3.28-.21 3.35-.19 3.4-.18 3.46-.15 3.47-.11 3.46-.05h3.39l3.28.05 3.04-.01m-72.42 17.14L-9.57-69.3l19.8.87.67.44-8.55-1.15-9.49-1.24-5.5-.45.78.28 6.71.71 9.59.84 8.09.48 3.22-.35-1.93-1.17-3.95-1.25-1.59-.68 2.98-.57 6.14-1.26 8.81.78 19.13 11.54" filter="url(#a)"/><path d="M45.34-61.48 19.47-74.61 2.15-76.98l-9.57 3.38.09 5.12 8.87 4.45 12.49 2.7 10.07.85 4.01-.28-2.3-.35-6.41.24-7.32.51-5.28-.39-1.29-2.19 2.65-3.57 1.92-3.46-11.4-2.37-36.97 3.88" filter="url(#a)"/><path d="M59.6-36.21 14.07-49.05 1.29-53.53-9.3-58.45l-6.39-4.23.15-2.32 6-.66 9.15-.15 9.06-.63 6.66-1.2 3.64-1.06 1.56.02.98 1.58 1.42 2.83 1.62 3.17.43 2.38-2.4.63-5.78-1.64-7.64-3.8-6.44-5.1-2.91-4.98-.24-3.71-.34-2.86 8.92-3.46" filter="url(#a)"/><path d="m2.55-84.43-2.7 2.29-3.3 7.4-.38 6.94 2.06 2.68 3.62-1.21 4.56-2.74 4.33-2.26 2.74-.89.55.53L13-69.94l-1.44 2.64-1.34 2.82-1.94 1.94-3.78.02-5.96-2.1-6.95-3.3-6.12-2.81-4.39-.87-2.48 1.28 1.62 2.61 13.96 3.9 52.26 4.05" filter="url(#a)"/><path d="M62.59-26.33-8.84-45.85l-24.73-6.69-3-3.5 5.25-3.14 5.54-2.91 3.1-2.15 1.94-1.26 3.6-.71 7.13-.46L.58-66.7l12.2.93 10.94 1.69 6.2.66-1.85-3.12-10.77-7.55-15.43-7.52-14.36-1.35" filter="url(#a)"/><path d="M19.15-80.98-3.38-64.9l3.02-.72-2.39-5.35-6.13-4.25-5.35-2-2.23-.2 1.26 1.02 3.68 1.9 4.05 2.42 2.29 2.46-.6 1.91-2.97.92-3.42-.25-1.75-1.32.91-2.11 2.76-2.41 2.84-1.94 1.67-.45.66 1.88.64 4.27.78 5.3-3.16 3.51-39.02-.22" filter="url(#a)"/><path d="m-4.48-84.09 15.25 6.74-5.21 2.05-4.29 1.31-3.11.43-4.42-.07-5.52-.23-5.02-.41-3.44-.65-1.76-.73-.36-.65 1.05-.53 2.8-.39 4.81.08 6.85 1.28 8.74 3.22 10.24 4.92 9.62 4.56 2.46 1.19L7.2-63.45l-54.9 5.26" filter="url(#a)"/><path d="m-38.29-68.46 50.06 6.55 5.45 1.35-7.1.85-8.48-.63-5.99-2.5-1.98-3.21 1.58-2.51 3.15-1.17 2.46-.01.66.66-.58 1-.55 1.26-.06 1.34-.65.97-2.4.06-2.92-.72 1.06-.31 10.5 1.8 22.05 3.79 18.47.13" filter="url(#a)"/><path d="M44.79-61.89 23.22-73.04l.59.5 3 2.54 1.58 1.89-1.54.64-6.27-.55-10.71-1.1-12.41-.8-10.26-.15-5.12.19.86-.03 5.47-.35 7.56.15 7.43 1.98 6.3 4.42 5.16 5.64 7.17 5.62 38.64 19.59" filter="url(#a)"/><path d="M59.6-36.04 42.48-57.79 25.33-68.92l-13.89-4.5-8.29-1.61-3.66-.58-1.42-.14-.97.27-1.1.79-.83 1.32-.01 1.55.83 1.26.92.56-.01-.2-1.25-.65-1.44-.62.31-.08 3.55.77 6.29 1.74 6.15 2.31 2.55 2.03-1.16.65-1.4-2.75-22.13-16.14" filter="url(#a)"/><path d="m25.92-77.53-7.88-2.24-5.43-.04-6.43.36-2.78 1.03 1.66 1.61 3.13 1.8 1.58 1.83-.56 2.11-1.13 2.74.1 3.42 1.79 3.73 2.27 3.38.98 2.32-1.05.76-1.76-.88-.1-2.04 2-2.5.43-2.48-4.62-1.32 1.44 5.24 49.98 22.8" filter="url(#a)"/><path d="m58.04-40.01-45.33-9.92 8.1-2.03 9.16.3-1.78-1.02-9.63-2.58L7.42-58.4l-8.26-2.69-3.92-1.68.1-.67 3.05.07 4.82.56 5.64.96 6.04 1.31 6.59 1.51 7.21 1.38 7.09.87 5.36.06 2.12-.9-1.08-1.7-1.31-.76 4.83 5.6 13.9 18.44" filter="url(#a)"/><path d="M8.15-83.64-5.91-69.86 3.58-70l6.13-3.15 1.9-1.62-.74.36-1.3 1.74.49 2.63 3.25 3.2 4.58 3.22 2.94 2.5-1.07 1.23-4.98.05-6.01-.41-2.97.02 2.91.91 8.47 1.56 10.65 1.53 8.5 1.02 3.2.42-5.15-.08-22.13.16-64.05 2.43" filter="url(#a)"/><path d="M-30.96-74.35 6.7-72l-1.66 2.78-13.96 2.38-8.77.92.91-.84 7.72-1.46 9.97-.67 8.69.4 5.45.29 1.63-1.27-2.16-3.15-6.19-3.95-10.31-3.24-11.14-1.49-5.51.52" filter="url(#a)"/><path d="M41.38-65.91 10.19-76.37.14-79.17l-4.54 1.02-.17 2.2 2.94 2.02 3.38 1.36 1.42.69-1.79.19-4.94-.13-6.98-.27-7.49-.14-6.69.25-5.16.79-3.35 1.26-1.33 1.43 1.1 1.14 3.83.55 5.84.05 5.47.38 3.54 2.44 11.26 6.57 58.2 10.2" filter="url(#a)"/><path d="m-35.89-70.83 5.83 1.26 3.57.52-3.17 2.44-1.29 1.65 5.01-.18 10-1.1 11-.77 8.89.12 6.22.78 4.68.75 3.81-.02 2.22-.96-.25-1.04-1.32.56 2.02 3.26 9.09 4.31 11.88.8 3.04-3.03" filter="url(#a)"/><path d="M-8.87-83.71 26.27-65.5l.58-.11-11.14-3.32-9.9-2.56-4.38-1.26-.58-.49-.18-.4-1.72-.55-2.92-.51-2.38-.12-.18.55 2.59 1.34 4.81 1.94 5.93 2.06 5.89 1.53 4.97.46 3.36-.64 1.49-1.15.3-.72.95.31 3.1.92 3.03-.48-5.32-5.21L3.55-84.38" filter="url(#a)"/><path d="M24.1-78.85-.77-69.79l5.06 2.55 10.33 3.18 9.44 4.32 3.36 2.58-4.95-.93-11.33-3.63-13.61-4.09-12.08-2.73-8.36-1.01-3.97-.27-.1-.8 2.39-1.73 3.4-1.93 4.8-.88 10.26 1.65 22.63 9.06 44.36 31.88" filter="url(#a)"/><path d="m-8.87-83.71 6.63 5.49-10.51 4.59-3.55 3.72 4.41 1.93 6.95-.34 5.28-2.12 2.18-2.8-.54-2.42-2.21-1.32-2.55.12-1.32 1.58 1.5 2.75 4.99 3.31 6.99 2.82 5.08 1.05-1.29-1.42L3-69.6l-20.01-1-25.48 6.1" filter="url(#a)"/><path d="m-21.17-80.09 31.25 6.2 1.32 2.54-1.75 3.33 1.91 2.96 5.4 2.11 6.61 1.54 4.75 1.14.17.55-5.7-.32-10.7-1.22L-.62-63l-10.55-1.69-4.72-1.01 2.9.2 9.86 1.93 13.98 3.59 13.57 3.49 7.54-.43.21-5.44 17.73 7.19" filter="url(#a)"/><path d="m-47.7-58.19 11.85-9.37 3.92-.42 3.85 2.8 9.06 2.46 11.7 1.62 9.86 1.03 5.92.38 2.61-.67.93-2 .45-3.13.18-3.55-.66-2.99-2.23-1.72-3.97-.21-4.71 1-3.08 1.71 1.5 2.07 7.7 2.36 11.99 2.29 10.15.68 1.15-3.67-8.51-8.47-2.04-4.48" filter="url(#a)"/><path d="m46.91-59.21-31.2-6.55 2.25-1.07 2.77.43-.67.85-1.94.14-1.29-1.16.01-2.2 1.12-2.36 1.73-1.56 1.61-.24.55.92-1.29 1.4-3.03 1.28-3.02 1.35.05 2.48 5.6 4.62 10.27 6.01 9.38 3.68 1.14-3.9-8.4-12.52-1.59-7.21" filter="url(#a)"/><path d="M27.66-76.45 2.51-78.08l-4.68 1.06 3.9-.08 2.16-.48-.87.15L2-76.01l.71 2.9 1.64 3.95.13 4.04-3.28 3.13-6.45 1.59-6.65.02-1.95-1 7.18-.88 16.2.83 16.7 2.96-1.21-.16-45.99-21.42" filter="url(#a)"/><path d="M60.67-32.86 15.48-49.47l-.22-9.45-1.52-7.88-6.39-6.11-6.57-3.28-3.46.06.76 3.08 4.57 4.9 6.73 4.85 6.27 2.92 3.1-.13-1.42-2.97-4.89-4.34-5.18-3.71L5.55-73l3.88 1.2 8.12 2.84 6.81 1.92-2.44-2.31-15.29-7.98-12.95-6.86" filter="url(#a)"/><path d="m33.09-73.32 7.5 9.17-7.57-.94-13.23-2.24L7.12-68l-10.42.19-7.62-.37-4.26-1.6-.8-2.37 2.12-2.12 4.33-1.13 5.58-.26 5.12-.29 2.54-1.04-1.56-.97-9.58 2.45-35.06 11.01M65.03-14.49l1.06 3.2 2.89 3.24 3.16 2.96 1.84 2.76.21 2.63-.79 2.5-1.01 2.35-.67 2.25-.11 2.2.34 2.24.53 2.33.51 2.43.44 2.51.47 2.55.63 2.57.91 2.55 1.15 2.53 1.29 2.52 1.25 2.49 1.02 2.47.64 2.43.25 2.36.02 2.24v2.06l.07 1.89-.17 1.77-1.1 1.66M-.85-84.64l-3.05.35-2.28.24-1.98.26-1.93.32-2 .41-2.08.48-2.1.55-2.11.61-2.11.68-2.15.76-2.2.84-2.27.91-2.31 1-2.31 1.06-2.26 1.12-2.2 1.15-2.2 1.18-2.31 1.21-2.56 1.3-2.93 1.43-3.2 1.57-3.14 1.64-2.62 1.56-2.05 1.49-2.64 1.99" filter="url(#a)"/><path d="m-2.85-84.49-1.8.19-2.23.31-2.51.35-2.54.38-2.43.45-2.32.53-2.25.61-2.28.68-2.48.74-2.84.8-3.24.85-3.58.91-3.74.97-3.7 1.04-3.53 1.1-3.26 1.16-2.99 1.2-2.8 1.28-2.84 1.39-3.07 1.51-3.19 1.52-2.72 1.22-2.49.57" filter="url(#a)"/><path d="m-4.48-84.09-1.87.06-2.07.23-2.17.34-2.12.42-2.12.5-2.27.57-2.54.64-2.78.71-2.91.78-2.89.87-2.75.95-2.62 1.02-2.53 1.09-2.53 1.14-2.63 1.19-2.8 1.24-2.98 1.3-3.11 1.38-3.13 1.46-3 1.55-2.8 1.61-2.57 1.67-2.44 1.72-2.45 1.77-2.62 1.82-2.9 1.86-3.13 1.89-3.23 1.89-3.06 1.87-2.68 1.91-2.41 2.04-2.67 2.31-3.75 2.36-4.61 1.07" filter="url(#a)"/><path d="m-4.65-84.42-1.83.42-1.99.37-1.93.38-1.99.46-2.09.54-2.17.63-2.15.7-2.09.76-2.02.81-1.96.87-1.95.93-1.96 1-1.99 1.06-2 1.12-1.99 1.19-1.94 1.25-1.88 1.33-1.83 1.4-1.79 1.47-1.8 1.55-1.84 1.61-1.94 1.69-2.03 1.78-2.05 1.83-1.94 1.83-1.93 2-2.72 3.16" filter="url(#a)"/><path d="m-6.32-84.19-1.72.34-1.81.35-1.98.43-2.01.5-1.97.57-1.93.64-1.92.7-1.93.78-1.98.86-2.01.94-2.03 1.02-2.04 1.08-2.03 1.14-2.02 1.17-2.03 1.22-2.07 1.28-2.14 1.36-2.2 1.45-2.25 1.54-2.23 1.6-2.17 1.66-2.1 1.7-2.02 1.74-1.95 1.82-1.94 1.9-2.02 1.98-2.01 1.96-1.61 1.7-.64 1.31" filter="url(#a)"/><path d="m-6.32-84.19-1.67.34-1.63.35-1.64.43-1.41.51-1.17.57-1.06.64-1.06.71-1.1.79-1.03.87-.84.95-.58 1.02-.31 1.09-.1 1.14.02 1.19.02 1.23-.04 1.3-.12 1.38-.15 1.46-.09 1.54.04 1.61.17 1.67.18 1.71v1.77l-.26 1.82-.43 1.87-.36 1.89.07 1.88.81 1.84 1.73 1.83 2.72 2.02 3.65 2.63 4.24 4.05" filter="url(#a)"/><path d="m-8.38-83.76-1.46.24-2.02.43-2.16.51-2.25.58-2.32.64-2.3.7-2.22.79-2.13.86-2.12.95-2.14 1.02-2.17 1.09-2.2 1.14-2.21 1.18-2.28 1.23-2.42 1.28-2.59 1.37-2.74 1.45-2.82 1.54-2.81 1.61-2.69 1.66-2.54 1.7-2.38 1.76-2.32 1.81-2.43 1.89-2.62 1.94-2.7 1.9-2.5 1.76-2.38 1.57-3.36 1.69" filter="url(#a)"/><path d="m-8.38-83.76-1.86.24-2.2.42-2.14.51-2.02.57-1.95.63-2 .69-2.19.77-2.52.85-2.91.93-3.26 1.01-3.44 1.08-3.36 1.13-3.05 1.16-2.61 1.19-2.19 1.24-1.95 1.32-1.95 1.43-2.18 1.55-2.6 1.61-3.13 1.64-3.66 1.65-3.94 1.71-3.67 1.72-3.63 1.21" filter="url(#a)"/><path d="m-8.38-83.76-1.59.24-2.22.42-2.36.51-2.52.57-2.62.63-2.67.7-2.67.77-2.62.85-2.51.94-2.41 1.02-2.42 1.08-2.55 1.13-2.79 1.16-3.06 1.2-3.29 1.25-3.43 1.33-3.52 1.44-3.53 1.54-3.45 1.61-3.29 1.64-3.12 1.66-3.08 1.7-3.27 1.71-3.57 1.66-4.16 1.83" filter="url(#a)"/><path d="m-8.62-83.61-1.87.34-1.74.44-1.97.56-2.1.66-2.11.72-2.05.79-1.97.83-1.89.89-1.85.95-1.84 1.01-1.85 1.09-1.87 1.14-1.88 1.22-1.89 1.28-1.89 1.35-1.88 1.43-1.88 1.51-1.86 1.57-1.83 1.65-1.77 1.72-1.72 1.78-1.63 1.83-1.56 1.88-1.49 1.93-1.42 1.95-1.39 2-1.39 2.03-1.42 2.08-1.49 2.12-1.55 2.1-1.52 2.02" filter="url(#a)"/><path d="m-8.62-83.61-2.3.34-3.39.44-3.79.55-3.2.65-2.47.72-2.09.77-2.05.82-2.14.88-2.35.93-2.68 1-3.17 1.07-3.72 1.13-4.21 1.19-4.54 1.26-4.71 1.33-4.8 1.41-4.89 1.48-4.92 1.55-4.82 1.62-4.61 1.69-4.44 1.78-4.58 1.83-5.19 1.85-6.14 1.91-7.27 1.97-6.7 1.31" filter="url(#a)"/><path d="m-11-83.28-2.07.41-2.44.57-2.67.67-2.8.74-2.67.79-2.41.84-2.18.89-2.1.95-2.13 1.02-2.2 1.09-2.24 1.15-2.26 1.22-2.3 1.29-2.38 1.36-2.53 1.43-2.69 1.51-2.8 1.58-2.87 1.65-2.89 1.72-2.85 1.79-2.77 1.83-2.63 1.89-2.44 1.92-2.28 1.96-2.25 2-2.47 2.04-2.97 2.09-3.52 2.14-3.55 2.21-2.61 2.37-2.13 2.87" filter="url(#a)"/><path d="m-11.63-82.94-2.67.59-2.86.69-2.64.75-2.41.78-2.31.82-2.33.87-2.34.94-2.32 1-2.24 1.06-2.16 1.14-2.11 1.18-2.14 1.26-2.31 1.32-2.6 1.4-2.93 1.48-3.19 1.54-3.26 1.61-3.23 1.68-3.15 1.78-3.05 1.82-2.82 1.82-2.86 1.99-4.76 3.14" filter="url(#a)"/><path d="m-13.79-82.41-2.81.75-2.6.78-2.61.81-2.72.84-2.76.89-2.73.96-2.7 1.03-2.75 1.1-2.91 1.16-3.07 1.23-3.2 1.3-3.28 1.37-3.31 1.45-3.29 1.52-3.19 1.6-3.01 1.66-2.83 1.73-2.71 1.79-2.7 1.85-2.83 1.89-3 1.93-3.19 1.97-3.41 2.01-3.78 2.06-4.28 2.09-4.7 2.13-4.67 2.14-3.96 2.13-2.86 2.05-2.25 1.95-2.9 2.02-4.58 2.86" filter="url(#a)"/><path d="m-18.48-80.99-2.47.99-2.12 1.01-1.88 1-1.73 1.08-1.57 1.15-1.4 1.19-1.3 1.21-1.27 1.25-1.32 1.31-1.41 1.41-1.47 1.49-1.49 1.58-1.44 1.65-1.34 1.69-1.2 1.75-1.04 1.78-.9 1.83-.77 1.87-.69 1.89-.66 1.91-.69 1.95-.72 1.99-.72 2.05-.66 2.13-.55 2.2-.4 2.28-.29 2.38-.26 2.46-.27 2.52-.21 2.5-.03 2.37.07 2.19-.63 2.43" filter="url(#a)"/><path d="m-18.48-80.99-3.61.98-3 .99-2.36.99-2.5 1.06-2.74 1.14-2.69 1.17-2.51 1.19-2.43 1.21-2.48 1.27-2.58 1.37-2.67 1.46-2.82 1.56-3.12 1.63-3.57 1.66-4.02 1.7-4.23 1.75-4.09 1.81-3.62 1.87-3.01 1.9-2.49 1.87-2.26 1.76-2.4 1.65-2.96 1.67-3.59 1.84" filter="url(#a)"/><path d="m-18.48-80.99-2.53.99-2.45 1-2.75 1.01-3.16 1.07-3.28 1.15-3 1.18-2.43 1.21-1.81 1.24-1.36 1.31-1.18 1.4-1.26 1.49-1.48 1.58-1.76 1.64-2.07 1.69-2.4 1.73-2.71 1.78-2.99 1.83-3.18 1.86-3.21 1.89-3.1 1.9-2.9 1.93-2.73 1.97-2.65 2.04-2.67 2.11-2.72 2.19-2.67 2.26-2.48 2.37-2.17 2.49-2.03 2.62-2.48 2.74-3.73 3.26m160.24 8.6.89 2.95 1.82 3.15 3.69 3.12 5.14 2.95 5 2.79L84.49.14l1.78 2.5.63 2.37.34 2.25.56 2.22.83 2.24.85 2.31.7 2.42.66 2.51.98 2.55 1.67 2.56 2.47 2.56 3.03 2.53 3.2 2.51 3.04 2.49 2.68 2.49 2.1 2.47 1.27 2.43.31 2.29-.52 2.02-.22 1.56" filter="url(#a)"/><path d="m-20.97-80.05-2.23.82-2.29.89-1.93.95-1.65 1.03-1.6 1.12-1.64 1.17-1.71 1.24-1.82 1.29-1.97 1.37-2.13 1.45-2.29 1.53-2.37 1.59-2.4 1.67-2.35 1.72-2.28 1.79-2.21 1.85-2.15 1.89-2.12 1.92-2.09 1.96-2.03 2.01-1.94 2.04-1.84 2.09-1.77 2.13-1.74 2.15-1.71 2.15-1.75 2.03-2 1.7-2.7 1.26" filter="url(#a)"/><path d="m-24.8-78.34-1.38.98-1.01.99-.98 1.14-.99 1.2-1.16 1.24-1.39 1.28-1.5 1.37-1.43 1.46-1.21 1.53-.97 1.6-.85 1.67-.9 1.73-1.03 1.79-1.11 1.84-1.05 1.89-.89 1.92-.72 1.96-.64 2-.66 2.04-.71 2.08-.64 2.12-.38 2.16.04 2.14.53 2.02.84 1.7.02 1.25" filter="url(#a)"/><path d="m-24.8-78.34-2.21.99-2 1-1.74 1.16-1.63 1.21-1.65 1.25-1.73 1.31-1.8 1.4-1.8 1.48-1.76 1.55-1.67 1.63-1.59 1.69-1.52 1.76-1.49 1.81-1.47 1.87-1.46 1.91-1.47 1.95-1.46 1.99-1.46 2.03-1.47 2.07-1.46 2.09-1.45 2.13-1.41 2.15-1.33 2.18-1.22 2.24-1.13 2.3-1.09 2.41-1.12 2.5-1.2 2.58-1.3 2.59-1.33 2.54-1.24 2.46-1.04 2.37-.8 2.28-.7 2.5" filter="url(#a)"/><path d="m-25.21-78.15-4.65 1.08-6.01 1.28-3.68 1.28-1.73 1.2-1.32 1.19-1.65 1.25-1.91 1.37-1.87 1.5-1.83 1.59-2.09 1.65-2.8 1.67-3.82 1.72-4.82 1.76-5.41 1.82-5.27 1.85-4.43 1.88-3.27 1.87-2.47 1.87-2.69 1.9-3.99 2.01-5.59 2.16-6.42 2.11-6.29 1.68-6.8 1.23" filter="url(#a)"/><path d="m-25.21-78.15-2.53 1.08-3.67 1.29-2.85 1.28-1.78 1.21-1.37 1.19-1.62 1.27-2.17 1.38-2.72 1.5-3.06 1.6-3.21 1.65-3.22 1.68-3.23 1.73-3.28 1.77-3.39 1.82-3.51 1.86-3.61 1.88-3.72 1.89-3.93 1.9-4.27 1.94-4.7 2.02-5 2.1-4.94 2.15-4.51 2.19-4.01 2.34-3.96 2.68-5.72 2.43" filter="url(#a)"/><path d="m-26.75-77.25-3.17 1.48-2.85 1.35-2.34 1.21-2.41 1.17-2.98 1.25-3.56 1.39-3.73 1.53-3.41 1.61-2.88 1.66-2.46 1.7-2.33 1.74-2.45 1.78-2.66 1.83-2.83 1.87-2.85 1.88-2.78 1.91-2.73 1.92-2.8 1.98-3.01 2.03-3.29 2.12-3.47 2.19-3.46 2.27-3.23 2.36-2.95 2.48-2.74 2.55-2.65 2.54-2.91 2.32-3.85 1.41m82.78-51.53-2.18 1.47-1.83 1.34-1.62 1.21-1.49 1.16-1.48 1.23-1.55 1.37-1.6 1.52-1.57 1.6-1.47 1.65-1.34 1.69-1.21 1.71-1.14 1.77-1.13 1.82-1.14 1.85-1.17 1.88-1.14 1.88-1.07 1.88-.99 1.92-.94 2.01-.9 2.11-.84 2.13-.7 2.08-.61 2.31-.99 3.76" filter="url(#a)"/><path d="m-26.59-77.39-5.81 2.1-2.03 1.37-2.27 1.24-3.2 1.28-3.83 1.38-4.07 1.49-4.02 1.57-3.75 1.63-3.29 1.7-2.74 1.76-2.25 1.82-2 1.87-2.03 1.92-2.27 1.95-2.58 1.99-2.83 2.03-3.07 2.06-3.36 2.09-3.78 2.13-4.28 2.15-4.66 2.17-4.78 2.23-4.65 2.3-4.52 2.41-4.67 2.5-5.14 2.58-5.48 2.58-5.08 2.54-3.78 2.46-2.41 2.36-2.27 2.27-5.35 2.5m207.31-3.78.49 2.28 1.01 2.85 1.82 2.59 2.42 2.43 2.17 2.42 1.29 2.44.47 2.49.18 2.51.42 2.51.88 2.52 1.2 2.49 1.22 2.46.99 2.44.66 2.42.42 2.42.36 2.42.45 2.41.57 2.39.55 2.38.27 2.37-.25 2.36-.86 2.37-1.35 2.39-1.52 2.41-1.27 2.39-.67 2.33-.04 2.22.33 2.08.2 1.97-.35 1.89-.56 1.74.88.99" filter="url(#a)"/><path d="m64.47-16.74 1.11 2.25 1.48 2.83 1.36 2.57.99 2.4.47 2.38.12 2.42.1 2.45.32 2.48.59 2.5.79 2.5.85 2.48.74 2.43.56 2.41.35 2.39.2 2.39.15 2.4.12 2.41.1 2.39.1 2.36.19 2.33.37 2.25.47 2.15.26 1.96.33 1.48" filter="url(#a)"/><path d="m64.47-16.74 1.23 2.28 1.76 2.85 2.93 2.59 3.18 2.43 2.19 2.42.99 2.44.38 2.49.39 2.51.6 2.51.63 2.52.38 2.49-.01 2.46-.27 2.44-.28 2.42.02 2.42.56 2.42 1.13 2.41 1.56 2.39 1.71 2.38 1.51 2.37 1.04 2.36.48 2.37-.04 2.39-.39 2.41-.62 2.39-.82 2.33-1.06 2.22-1.27 2.08-1.29 1.97L80 54.91l-.98 1.74-.68.99" filter="url(#a)"/><path d="m64.47-16.74 1.88 2.24 4.21 2.82 3.93 2.57 2.49 2.38 1.14 2.37.47 2.41.53 2.44.94 2.47 1.32 2.5 1.45 2.49 1.38 2.47 1.31 2.43 1.28 2.38 1.17 2.38.79 2.38.18 2.4-.33 2.4-.29 2.4.49 2.38 1.57 2.34 2.17 2.24 2.14 2.13M-31.33-74.13l-2.23 1.14-2.84 1.04-2.66 1.17-2.5 1.4-2.46 1.58-2.42 1.66-2.34 1.7-2.3 1.71-2.31 1.75-2.33 1.8-2.3 1.84-2.19 1.88-2.03 1.9-1.9 1.92-1.79 1.96-1.7 2-1.59 2.07-1.47 2.15-1.39 2.22-1.43 2.3-1.61 2.37-1.94 2.43-2.35 2.45-2.79 2.45-3.19 2.42-3.49 2.41-3.52 2.43-3.11 2.56-2.28 2.8-1.31 3.24-.17 3.86" filter="url(#a)"/><path d="m-31.33-74.13-3.34 1.15-1.6 1.04-2.37 1.17-3.41 1.41-3.76 1.59-3.33 1.66-2.64 1.7-2.19 1.73-2.2 1.76-2.59 1.8-3.16 1.85-3.69 1.88-4.07 1.91-4.22 1.94-4.04 1.97-3.5 2.02-2.59 2.08-1.53 2.16-.64 2.24-.2 2.31-.43 2.37-1.31 2.41-2.59 2.45-3.92 2.45-4.95 2.46-5.46 2.47-5.3 2.52-4.54 2.59-3.43 2.69-2.55 2.72-2.41 2.61-3.01 2.33-3.33 2.06-3.29 2.34" filter="url(#a)"/><path d="m-31.33-74.13-2.11 1.15-2.71 1.04-2.47 1.18-2.08 1.41-1.93 1.58-1.89 1.67-1.8 1.7-1.62 1.73-1.46 1.76-1.38 1.81-1.44 1.85-1.58 1.88-1.74 1.91-1.84 1.94-1.86 1.98-1.78 2.02-1.69 2.1-1.6 2.16-1.59 2.24-1.63 2.31-1.72 2.37-1.83 2.42-1.95 2.44-2.05 2.46-2.15 2.46-2.19 2.49-2.09 2.52-1.78 2.6-1.3 2.66-.74 2.67-.37 2.59-.46 2.43-1.05 2.33-1.63 2.56-.55 3.28" filter="url(#a)"/><path d="M-31.33-74.12-38-72.71l-3.11 1.29-2.17 1.4-1.86 1.53-1.51 1.6-1.28 1.64-1.4 1.71-1.8 1.77-2.21 1.84-2.44 1.88-2.48 1.92-2.44 1.96-2.47 2-2.62 2.04-2.83 2.07-3.02 2.1-3.12 2.13-3.09 2.16-3.01 2.2-2.91 2.25-2.83 2.32-2.81 2.41-2.85 2.49-2.87 2.54-2.71 2.54-2.29 2.51-1.62 2.46-1.01 2.39-.96 2.34-1.72 2.31-2.95 2.27-3.28 2.16-1.17 1.72" filter="url(#a)"/><path d="m-33.17-72.82-1.26.9-1.55 1.04-1.88 1.38-2.09 1.6-2.2 1.68-2.37 1.69-2.68 1.68-3.01 1.7-3.22 1.77-3.25 1.82-3.12 1.86-2.92 1.88-2.79 1.87-2.81 1.88-3.02 1.92-3.38 2.01-3.75 2.1-4.01 2.14-4.15 2.18-4.15 2.32-3.67 2.67-2.16 2.41" filter="url(#a)"/><path d="m-33.67-72.51-4.97 1.11-1.03 1.31-1.21 1.54-2.08 1.61-2.55 1.62-2.54 1.68-2.32 1.74-2.14 1.82-2.07 1.86-2.04 1.9-1.98 1.93-1.9 1.96-1.84 2.01-1.86 2.04-1.97 2.08-2.09 2.1-2.17 2.12-2.19 2.11-2.27 2.11-2.57 2.16-3.14 2.35-3.83 2.68-4.13 2.9-3.48 2.1" filter="url(#a)"/><path d="m-33.67-72.51-8.38 1.13-2.74 1.33-1.09 1.56-.45 1.63-.71 1.65-1.62 1.7-2.84 1.78-3.94 1.84L-60-58l-4.52 1.93-3.92 1.96-3.09 2-2.42 2.04-2.22 2.07-2.51 2.1-3.08 2.14-3.61 2.16-3.82 2.2-3.67 2.26-3.31 2.33-3.06 2.41-3.1 2.48-3.41 2.53-3.67 2.54-3.57 2.5-3.01 2.45-2.37 2.4-2.27 2.34-2.94 2.32-3.66 2.32-3.14 2.35-1.51 2.56-2.44 3.46m99.86-69.61-1.19.8-1.82 1.42-2.1 1.71-2.08 1.74-1.93 1.71-1.81 1.7-1.8 1.73-1.87 1.79-1.97 1.84-2 1.88-1.95 1.89-1.82 1.91-1.67 1.94-1.51 1.98-1.38 2.06-1.29 2.13-1.26 2.21-1.29 2.29-1.35 2.36-1.47 2.44-1.58 2.46-1.69 2.45-1.75 2.4-1.79 2.33-1.74 2.33-1.37 2.35-.41 2.07" filter="url(#a)"/><path d="m-35.16-71.37.97 1.64.86 1.88-.95 1.82-1.71 1.71-1.19 1.67-.35 1.72.12 1.78.18 1.84.16 1.88.38 1.89.79 1.9 1.06 1.93.94 1.97.42 2.04-.18 2.13-.43 2.2-.05 2.28 1.03 2.36 2.55 2.44 4.17 2.48 5.36 2.46 5.57 2.37 4.44 2.3 2.29 2.38.35 2.69" filter="url(#a)"/><path d="m-35.89-70.83-1.25 2.24-2.17 1.85-1.86 1.63-1.55 1.68-1.38 1.79-1.27 1.86-1.18 1.91-1.04 1.94-.87 1.98-.71 2.01-.6 2.05-.55 2.08-.53 2.12-.46 2.15-.36 2.18-.2 2.22-.03 2.28.07 2.35.09 2.42v2.47l-.12 2.51-.21 2.52-.19 2.49-.01 2.45.33 2.42.71 2.39 1.04 2.4 1.17 2.43 1.04 2.49.75 2.57.49 2.65.5 2.68.81 2.65 1.16 2.61 1.07 2.74.73 3.3" filter="url(#a)"/><path d="m-35.89-70.83-1.43 2.22-2 1.84-1.67 1.61-1.5 1.66-1.5 1.76-1.5 1.85-1.43 1.88-1.31 1.92-1.16 1.95-1.05 1.99-.95 2.02-.88 2.06-.83 2.09-.81 2.12-.78 2.14-.78 2.16-.75 2.21-.71 2.29-.63 2.4-.53 2.51-.44 2.57-.35 2.57-.26 2.52-.19 2.44-.1 2.35-.07 2.26-.14 2.48m123.88-6.27-.64 2.16-.51 2.75-.31 3.02-.4 3.04-.68 2.95-.93 2.8L59.75.16l-1 2.52-1 2.4-1.09 2.32-1.2 2.28L54.21 12l-1.14 2.37-.93 2.44-.77 2.51-.78 2.55-1.09 2.57L47.86 27l-2.31 2.54-2.9 2.53-3.25 2.48L36.15 37l-2.9 2.38-2.38 2.31-1.84 2.22-1.51 2.13-1.43 2.06-1.55 2.03-1.71 2.03-1.81 2.05-1.82 2.01-1.78 1.93-1.72 1.76-1.58 1.65-1.46 1.8-1.6 2.12m53.18-84.71 13.8 2.11 6.11 2.69 2.25 2.98.14 3.02-.8 2.91-.68 2.79v2.65l.73 2.52 1.19 2.36 1.37 2.25 1.32 2.19 1.24 2.21 1.28 2.28 1.42 2.4 1.58 2.5 1.67 2.57 1.74 2.57 2.05 2.54 2.71 2.52 3.29 2.49 3.17 2.47 2.36 2.42.84 2.27" filter="url(#a)"/><path d="m-38.29-68.46-.17 1.95-.85 1.45-1.42 1.57-1.21 1.77-.78 1.86-.58 1.9-.62 1.92-.71 1.95-.61 1.98-.32 2.02.07 2.06.46 2.09.78 2.12 1.1 2.13 1.45 2.17 1.88 2.2 2.38 2.29 2.9 2.39 3.36 2.51 3.73 2.57 3.86 2.57 3.56 2.52 2.68 2.43 1.38 2.35.64 2.25 2.31 2.48m-25.27-55.5-5.22 1.95-6.62 1.46-4.04 1.57-1.98 1.77-2.03 1.87-3.45 1.9-4.99 1.92-5.86 1.95-5.84 1.99-5.15 2.02-4.23 2.07-3.39 2.09-2.73 2.12-2.24 2.14-1.87 2.17-1.7 2.22-1.81 2.3-2.18 2.4-2.64 2.5-3.01 2.56-3.27 2.56-3.56 2.51-3.94 2.43-4.18 2.36-4 2.29-4.32 2.28-7.41 2.25m98.6-54.96-.83.85-1.37 1.44-1.64 1.81-1.62 1.92-1.53 1.93-1.48 1.94-1.48 1.97-1.54 2-1.61 2.05-1.66 2.08-1.67 2.11-1.63 2.14-1.54 2.17-1.43 2.21-1.35 2.26-1.31 2.34-1.32 2.42-1.31 2.48-1.25 2.52-1.11 2.52-.94 2.49-.74 2.44-.61 2.4-.56 2.37-.58 2.36-.68 2.39-.85 2.46-1 2.58-1.06 2.71-.96 2.76-.65 2.61-.36 1.91" filter="url(#a)"/><path d="m-42.07-64.97-2.01 1.24-3.99 2.02-4.72 2.02-4.06 1.95-2.85 1.94-1.81 1.97-1.12 2.01-.78 2.05-.72 2.09-.97 2.12-1.5 2.14-2.21 2.18-2.97 2.22-3.61 2.28-3.95 2.35-3.96 2.42-3.7 2.49-3.31 2.51-2.93 2.51-2.72 2.49-2.7 2.45-2.85 2.41-3.07 2.39-3.22 2.4-3.17 2.43-2.82 2.49-2.25 2.57-1.71 2.63-1.58 2.66-1.92 2.66-2.39 2.62-2.6 2.63-3.21 2.61-5.53 2.05" filter="url(#a)"/><path d="m-42.86-64.04-4.62 1.35-3.32 1.83-2.97 1.9-2.04 1.91-1.43 1.92-1.53 1.91-2.03 1.9-2.44 1.92-2.53 1.98-2.32 2.07-1.97 2.15-1.7 2.23-1.62 2.3-1.76 2.37-2.08 2.42-2.45 2.44-2.76 2.44-2.97 2.4-3.13 2.41-3.38 2.45-3.72 2.57-3.91 2.76-3.41 2.93-1.85 2.85-.82 1.81" filter="url(#a)"/><path d="m-43.89-63.26-2.37 2.4-2.29 2.01-2.03 1.93-2.19 1.95-2.52 1.94-2.6 1.92-2.3 1.96-1.82 2.02-1.39 2.1-1.11 2.2-1.02 2.27-1.05 2.34-1.17 2.4-1.34 2.43-1.54 2.46-1.71 2.47-1.81 2.48-1.76 2.51-1.55 2.54-1.25 2.57-.94 2.6-.74 2.61-.69 2.59-.8 2.58-.99 2.56-1.14 2.55-1.17 2.55-1.08 2.52-.89 2.46-.71 2.45-.53 2.5-.32 2.67-.21 3-1.17 4.29m46.2-82.83-3.85 2.37-5.34 1.98-4.36 1.89-2.71 1.92-1.55 1.91-.99 1.88-.88 1.9-1.09 1.95-1.49 2.05-1.93 2.14-2.35 2.22-2.74 2.29-3.09 2.36-3.42 2.42-3.8 2.45-4.18 2.43-4.44 2.37-4.22 2.33-3.27 2.35-1.94 2.44-2.05 2.64-6.54 3.23" filter="url(#a)"/><path d="m-45.84-60.53-2.21 1.87-3.06 1.8-2.67 1.94-1.94 1.95-1.35 1.92-.95 1.94-.72 2.01-.68 2.11-.83 2.2-1.12 2.28-1.51 2.35-1.97 2.4-2.38 2.44-2.65 2.46-2.75 2.47-2.65 2.49-2.42 2.5-2.14 2.55-1.93 2.57-1.79 2.6-1.72 2.61-1.67 2.59-1.6 2.57-1.46 2.56-1.26 2.56-1.05 2.54-.93 2.51-1.02 2.49-1.41 2.47-2.01 2.52-2.48 2.63-2.47 2.72-2.06 2.59-1.39 1.23" filter="url(#a)"/><path d="m-45.84-60.53-1.79 1.87-2.55 1.81-2.7 1.94-2.01 1.95-1.27 1.92-.91 1.94-.94 2.02-1.21 2.11-1.57 2.2-1.93 2.29-2.2 2.35-2.33 2.4-2.32 2.44-2.15 2.46-1.9 2.47-1.57 2.49-1.28 2.52-1.07 2.54-1 2.58-1.1 2.6-1.28 2.6-1.45 2.59-1.48 2.58-1.33 2.56-1.08 2.56-.83 2.54-.74 2.52-.87 2.49-1.14 2.49-1.36 2.54-1.39 2.6-1.26 2.64-1.14 2.58-1.02 2.37-.26 2.65" filter="url(#a)"/><path d="m-47.14-58.96-6.01 1.46-7.48 1.74-3.62 1.96-.67 2.02-.66 2.04-2.3 2.07-3.73 2.11-3.97 2.13-3.14 2.14-2.05 2.17-1.43 2.23-1.54 2.31-2.12 2.41-2.77 2.49-3.23 2.54-3.46 2.53-3.5 2.48-3.39 2.42-3.21 2.36-3.3 2.31-4.1 2.3-5.6 2.29-6.52 2.33-5.36 2.54-6.01 3.43m88.61-56.04-1.69 1.3-2.19 1.96-1.86 2-1.48 1.9-1.42 1.89-1.61 1.98-1.97 2.1-2.36 2.19-2.74 2.26-3.05 2.34-3.37 2.39-3.74 2.43-4.04 2.45-4.17 2.45-3.95 2.46-3.37 2.47-2.53 2.52-1.63 2.57-.92 2.62-.58 2.61-.73 2.58-1.4 2.52-2.32 2.52-3.06 2.59-3.28 2.67-3.12 2.59-3.14 2.07-2.9 1.02" filter="url(#a)"/><path d="m-48.42-57.5-3.75 2.48-4.94 2.21-2.79 1.89-1.13 1.86-.93 1.97-1.56 2.11-2.33 2.21-2.97 2.28-3.39 2.35-3.66 2.41-3.74 2.44-3.67 2.45-3.44 2.46-3.13 2.47-2.83 2.49-2.56 2.53-2.35 2.58-2.14 2.6-1.89 2.61-1.65 2.58-1.54 2.55-1.71 2.55-2.14 2.55-2.7 2.56-3.3 2.5-3.87 2.43-4.34 2.39-4.29 2.44-3.01 2.43.33 1.68m81.42-71.06-1.39 2.49-.67 2.21.53 1.89 1.16 1.86.97 1.97.35 2.12-.17 2.21-.23 2.29.2 2.35.9 2.4 1.57 2.45 1.91 2.46 1.79 2.46 1.29 2.47.64 2.5.09 2.54-.13 2.57.09 2.6.68 2.6 1.47 2.59 2.21 2.56 2.71 2.55 2.77 2.55 2.46 2.55 1.9 2.51 1.45 2.45 1.41 2.43 1.82 2.5 2.32 2.66 2.79 3 3.98 4.28M-48.42-57.5l-2.01 2.48-1.75 2.21-1.24 1.88-1.17 1.84-1.37 1.97-1.61 2.1-1.8 2.21-1.93 2.27-1.99 2.34-1.98 2.4-1.89 2.44-1.73 2.45-1.55 2.45L-71.8-26l-1.27 2.48-1.26 2.52-1.33 2.57-1.38 2.61-1.31 2.61-1.13 2.57-.92 2.54-.84 2.53-.95 2.57-1.16 2.6-1.19 2.53-.92 2.28-.87 2.11-1.98 2.88" filter="url(#a)"/><path d="m-48.42-57.5-.9 2.48-.89 2.21-.83 1.88-.57 1.84-.35 1.97-.31 2.1-.45 2.21-.7 2.27-.9 2.34-.97 2.4-.87 2.44-.66 2.45-.42 2.45-.21 2.46-.06 2.48.04 2.52.1 2.57.16 2.61.2 2.61.22 2.57.24 2.54.26 2.53.28 2.57.27 2.6.23 2.53.29 2.28.68 2.11 1.05 2.88m4.69-66.33-4.4 3.19-.94 2.17-1.04 2.04-1.82 2.08-2.44 2.13-2.8 2.16-2.96 2.17-2.97 2.21-2.85 2.26-2.66 2.35-2.47 2.44-2.37 2.51-2.37 2.53-2.51 2.51-2.69 2.48-2.82 2.44-2.75 2.4-2.42 2.39-1.86 2.39-1.23 2.44-.75 2.49-.55 2.56-.63 2.62-.81 2.64-.93 2.65-.93 2.63-.89 2.64-.89 2.67-.86 2.7-.92 2.74-2.29 2.54" filter="url(#a)"/><path d="m-48.8-56.93-.41 3.2.46 2.17-.32 2.05-.83 2.1-.85 2.14-.65 2.16-.54 2.19-.59 2.21-.69 2.28-.74 2.37-.66 2.45-.44 2.51-.18 2.52.06 2.52.23 2.49.29 2.44.27 2.42.15 2.42-.01 2.42-.19 2.46-.31 2.52-.36 2.56-.28 2.61-.1 2.63.16 2.65.43 2.65.62 2.65.74 2.63.79 2.61.9 2.58 1.09 2.51 1.3 2.49 1.37 2.51 1.14 2.54.78 2.1m-2.63-85.76-2.06 3.2-1.58 2.16-1.75 2.04-1.77 2.09-1.55 2.14-1.31 2.16-1.16 2.17-1.07 2.21-1.02 2.27-.97 2.35-.94 2.44-.94 2.51-.95 2.53-.97 2.52-.97 2.48-.97 2.44-.97 2.4-.97 2.4-.98 2.4-.95 2.44-.89 2.5-.79 2.56-.64 2.61-.47 2.65-.29 2.64-.13 2.65-.02 2.64-.02 2.66-.11 2.66-.27 2.61-.55 2.41-.9 1.93" filter="url(#a)"/><path d="m-49.81-55.17-12.37 2.64-7.99 1.74-5.73 1.71-1.7 1.92 1.41 2.11 2.31 2.2 1.55 2.27.07 2.33-1.53 2.39-3.11 2.43-4.53 2.45-5.48 2.43-5.62 2.43-4.89 2.44-3.74 2.5-2.95 2.57-3.1 2.63-4.17 2.63-5.37 2.55-5.64 2.44-4.39 2.41-2.07 2.6-.19 3-.12 3.28" filter="url(#a)"/><path d="m-49.81-55.17-2.04 2.66-2.69 1.77-3.81 1.74-4.03 1.96-3.47 2.14-2.68 2.24-1.98 2.31-1.43 2.36-1.05 2.42-.82 2.46-.77 2.47-.9 2.47-1.17 2.49-1.52 2.51-1.83 2.54-2.03 2.58-2.03 2.6-1.83 2.61-1.47 2.59-1.09 2.57-.82 2.56-.77 2.55L-91-.04l-1.37 2.52-1.9 2.51-2.46 2.51-2.85 2.53-2.93 2.57-2.6 2.59-1.96 2.56-1.19 2.48-.49 2.41-.42 2.29-3.17 1.83m60.02-78.1-.51.85-.97 1.48-1.32 1.94-1.46 2.18-1.41 2.27-1.34 2.32-1.32 2.37-1.37 2.42-1.49 2.47-1.63 2.47-1.76 2.48-1.85 2.48-1.88 2.51-1.87 2.55-1.88 2.58-1.89 2.6-1.91 2.6-1.84 2.59-1.68 2.58-1.41 2.56-1.07 2.54-.77 2.54-.54 2.52-.41 2.51-.41 2.51-.56 2.53-.81 2.56-1.04 2.57-1.1 2.54-.93 2.47-.66 2.36-.62 2.22-.82 1.96-.08 1.66" filter="url(#a)"/><path d="m-52.32-51.34-.79.85-.97 1.47-.96 1.93-1.03 2.18-1.08 2.27-1.12 2.31-1.11 2.36-1.08 2.43-1 2.45-.92 2.47-.87 2.47-.84 2.48-.84 2.5-.83 2.54-.8 2.58-.73 2.6-.63 2.61-.52 2.58-.42 2.57-.35 2.55-.29 2.55-.25 2.53-.19 2.51-.13 2.5-.07 2.49-.01 2.53.03 2.58.08 2.6.16 2.57.21 2.48.2 2.49.09 2.68" filter="url(#a)"/><path d="m-52.32-51.34-.58.84-1.48 1.47-2.51 1.92-2.85 2.17-2.54 2.26-2.09 2.3-1.82 2.35-1.68 2.42-1.53 2.45-1.31 2.46-1.05 2.46-.87 2.47-.81 2.48-.88 2.53-1.05 2.58-1.21 2.6-1.32 2.6-1.35 2.58-1.33 2.55-1.35 2.55-1.42 2.54-1.46 2.54-1.38 2.5-1.11 2.45-.79 2.42-.73 2.5-1.02 2.65-1.41 3-1.99 4.27" filter="url(#a)"/><path d="m-52.65-50.84-.9 1.57-1.33 2.01-1.48 2.26-1.42 2.29-1.34 2.28-1.36 2.32-1.5 2.4-1.68 2.45-1.89 2.45-2.11 2.43-2.36 2.42-2.58 2.44-2.72 2.5-2.66 2.56-2.36 2.62-1.86 2.62-1.38 2.55-1.23 2.47-1.54 2.46-2.14 2.6-2.57 2.81-2.49 2.86-2.76 2.36M64.21-19.5l.95.87 2.45 1.85 3.22 2.5 3.37 2.83 3.36 2.94 3.23 2.9 2.92 2.79 2.37 2.66 1.73 2.52 1.16 2.39.87 2.27.99 2.22 1.54 2.23 2.31 2.3 2.96 2.41 3.13 2.5 2.65 2.56 1.61 2.57.38 2.55-.72 2.53-1.52 2.5-1.88 2.49-1.46 2.47.49 2.51 4.1 2.73" filter="url(#a)"/><path d="m64.21-19.5 7.64.88 5.45 1.88.51 2.52-1.5 2.86-1.51 2.95-.51 2.9.86 2.79 2.2 2.67 3.25 2.53 3.85 2.4 3.93 2.3 3.51 2.27 2.74 2.28 1.88 2.34 1.26 2.43 1.05 2.5 1.31 2.54 1.85 2.57 2.43 2.56 2.7 2.54 2.46 2.53 1.72 2.5.76 2.48-.04 2.44-.41 2.37-.31 2.25.02 2.08.56 1.9 1.29 1.78 1.42 1.66" filter="url(#a)"/><path d="m64.21-19.5.79.89.55 1.89.26 2.53.31 2.87.46 2.95.51 2.91.44 2.79.3 2.67.21 2.53.18 2.41.23 2.31.28 2.29.33 2.3.34 2.36.3 2.44.25 2.5.19 2.54.1 2.57-.04 2.56-.23 2.55-.46 2.52-.67 2.5-.82 2.46-.84 2.41-.76 2.33-.62 2.22-.49 2.11-.47 2-.6 1.95-.82 1.99-.99 2.13-1.06 2.31-1.11 2.31M-54.45-47.47l-14.73 2.56-.12 2.48.13 2.22-1.78 2.27-3.17 2.41-3.95 2.47-4.43 2.48-4.87 2.43-5.36 2.42-5.84 2.44-6 2.5-5.56 2.57-4.45 2.61-2.97 2.6-1.59 2.55-.85 2.51-.91 2.5-1.41 2.55-1.71 2.59-1.54 2.51-1.61 2.25-2.92 2.09-2.55 2.86" filter="url(#a)"/><path d="m-55.85-44.76-3.99 2.01-3.03 2.16-1.66 2.15-2.05 2.21-2.95 2.36-3.76 2.51-4.4 2.59-4.89 2.59-4.95 2.54-4.38 2.48-3.21 2.44-1.77 2.41-.51 2.4.19 2.44L-97-9l-.25 2.52-.97 2.58-1.62 2.61-2.12 2.63-2.39 2.65-2.45 2.64-2.34 2.64-2.08 2.62-1.71 2.59-1.38 2.57-1.27 2.54-1.46 2.51-1.88 2.47-2.24 2.43-2.25 2.34-1.72 2.2-.74 2.03.52 1.9 1.69 1.91 1.89 2.2-.71 2.79" filter="url(#a)"/><path d="m-55.85-44.76-2.57 2.01-2.04 2.15-.93 2.14-.72 2.19-1.07 2.35-1.54 2.5-1.86 2.59-1.96 2.58-1.81 2.54-1.46 2.47-.99 2.43-.49 2.39-.12 2.39.06 2.42.01 2.45-.24 2.51-.59 2.57-.92 2.61-1.16 2.63-1.28 2.65-1.3 2.64-1.25 2.63-1.17 2.62-1.05 2.59-.82 2.56-.51 2.53-.12 2.5.22 2.52.33 2.53.09 2.53-.41 2.45-1.01 2.06m28.96-79.46-.91 3.39-.24 2.1-.64 2.23-.88 2.45-.85 2.53-.73 2.52-.62 2.47-.56 2.47-.5 2.49-.43 2.55-.32 2.59-.2 2.61-.05 2.61.08 2.59.2 2.57.26 2.55.29 2.54.28 2.53.26 2.52.25 2.51.26 2.52.29 2.53.32 2.54.36 2.53.41 2.51.48 2.45.6 2.38.73 2.34.82 2.31.84 2.28.78 2.19.63 1.89.69 2.03" filter="url(#a)"/><path d="m-55.57-45.49-1.73 3.39-1.84 2.1-2.06 2.22-1.53 2.45-.87 2.53-.54 2.51-.58 2.47-.83 2.46-1.19 2.5-1.57 2.54-1.89 2.59-2.1 2.61-2.09 2.61-1.84 2.59-1.36 2.56-.81 2.55-.35 2.54-.15 2.53-.28 2.51-.63 2.51-.97 2.51-1.14 2.53-.98 2.54-.63 2.55-.31 2.51-.26 2.45-.59 2.38-1.16 2.32-1.6 2.32-1.57 2.37-.91 2.25-.03.72" filter="url(#a)"/><path d="m-58.08-40.09-4.4.32-1.74 1.88-1.01 2.48-1.5 2.58-2.25 2.51-2.66 2.44-2.69 2.41-2.5 2.44-2.25 2.5-2.03 2.58-1.83 2.61-1.67 2.61-1.58 2.56-1.6 2.52-1.68 2.51-1.81 2.53-1.87 2.53-1.8 2.48-1.66 2.42-1.62 2.4-1.84 2.48-2.16 2.64-1.91 2.98.66 4.25" filter="url(#a)"/><path d="m-57.61-40.74-2.3 2.51-1.77 2-1.3 2.25-1.75 2.55-2.55 2.66-3.09 2.62-3.11 2.54-2.65 2.46-1.97 2.39-1.32 2.36-.88 2.36-.69 2.38-.68 2.43-.72 2.49-.75 2.56-.71 2.61-.71 2.63-.84 2.64-1.19 2.62-1.71 2.63-2.29 2.62-2.68 2.6-2.59 2.54-1.91 2.47-1.07 2.44-.98 2.58-2.04 3.1m44.25-68.04-.81 2.53-.33 2.03-.27 2.29-.31 2.58-.28 2.67-.2 2.64-.15 2.55-.19 2.48-.31 2.42-.47 2.4-.58 2.4-.61 2.43-.54 2.48-.41 2.53-.22 2.58-.04 2.62.13 2.64.26 2.65.34 2.64.4 2.63.45 2.62.51 2.59.57 2.56.67 2.53.76 2.5.85 2.45.92 2.39.95 2.31.95 2.2.92 2.11.93 2.05.98 2.07 1.08 2.17 1.22 2.28 1.32 2.33 1.45 2.43 2.02 3.35" filter="url(#a)"/><path d="m-57.61-40.74-4.06 2.5-1.42 1.97-.29 2.23-.25 2.54-.55 2.65-.87 2.61-1.12 2.53-1.35 2.44-1.53 2.38-1.68 2.33-1.81 2.33-1.93 2.35-1.99 2.39-1.96 2.47-1.74 2.55-1.33 2.61-.73 2.63-.14 2.62.24 2.59.18 2.6-.29 2.63-.8 2.7-1.28 3.15" filter="url(#a)"/><path d="m-57.59-40.86-1.48 2.49-1.76 2.92-1.56 2.73-1.48 2.52-1.54 2.42-1.7 2.38-2.07 2.42-2.57 2.51-3.08 2.58-3.36 2.62-3.36 2.6-3.19 2.55-3 2.52-2.85 2.51-2.6 2.52-2.12 2.52-1.46 2.48-.91 2.42-.84 2.39-1.19 2.47-1.55 2.64-1.85 2.97-3.94 4.25M63.6-22.61l.58 3.63.31 2.43.24 2.4.17 2.48.15 2.47.12 2.45.1 2.44.06 2.46V.63l-.06 2.51-.13 2.51-.2 2.51-.26 2.49-.32 2.47-.37 2.44-.42 2.43-.47 2.42-.52 2.42-.57 2.42-.63 2.39-.7 2.39-.75 2.36-.83 2.37-.9 2.37-.97 2.4-1.03 2.42-1.09 2.41-1.14 2.35-1.16 2.23-1.17 2.07-1.22 1.98-1.38 2.04-1.85 2.55" filter="url(#a)"/><path d="m-60.23-33.9-1.56 1.84-1.85 2.24-1.56 2.32-1.93 2.33-3.04 2.4-4.4 2.52-5.53 2.61-6.01 2.64-5.6 2.61-4.37 2.56-2.78 2.51-1.46 2.51-.87 2.52-1.09 2.51-1.82 2.49-2.6 2.45-3.15 2.46-3.39 2.5-3.42 2.56-3.41 2.59-3.57 2.54-3.58 2.44-2.3 2.46-1.08 2.66" filter="url(#a)"/><path d="m-60.01-35.24-1.11 3.73-.96 3.17-.79 2.71-.63 2.5-.5 2.42-.41 2.38-.36 2.36-.33 2.38-.3 2.41-.26 2.47-.22 2.53-.18 2.59-.14 2.63-.08 2.64-.02 2.65.05 2.64.13 2.63.21 2.61.29 2.59.34 2.55.38 2.53.4 2.49.42 2.44.42 2.37.44 2.3.48 2.2.54 2.11.64 2.07.74 2.09.85 2.17.94 2.27 1.03 2.37 1.11 2.46 1.29 2.65 1.39 2.59" filter="url(#a)"/><path d="m-60.01-35.24-1.19 3.72-1.24 3.16-.9 2.7-.67 2.5-.68 2.41-.85 2.37-1.02 2.35-1.09 2.36-1.03 2.39-.9 2.46-.74 2.52-.58 2.58-.47 2.62-.39 2.64-.38 2.65-.42 2.63-.48 2.62-.54 2.61-.49 2.58-.35 2.56-.12 2.52.14 2.5.3 2.46.3 2.42.12 2.32-.19 2.19-.43 2.01-.43 1.89-.14 1.9.3 2.19 1.13 2.78" filter="url(#a)"/><path d="m-60.84-32.32-.8 2.52-.97 2.45-1.24 2.36-1.33 2.43-1.16 2.56-.98 2.65-1.02 2.67-1.3 2.63-1.69 2.59-1.95 2.55-1.94 2.54-1.63 2.54L-78.02.7l-.69 2.52-.32 2.51-.1 2.52.03 2.52.11 2.52.18 2.52.2 2.48.14 2.43-.02 2.39-.28 2.35-.58 2.32-.77 2.31-.81 2.33-.68 2.36-.4 2.41-.09 2.44.18 2.37.36 2.2.6 2.09 1.17 2.48" filter="url(#a)"/><path d="m-61.01-31.36-1.98 3.39-2.15 2.51-2.33 2.37-2.52 2.35-2.73 2.33-3.1 2.32-3.62 2.32-4.1 2.35L-87.81-9l-3.88 2.5-2.89 2.56-1.56 2.61-.39 2.63.11 2.62-.35 2.62-1.59 2.61-3.06 2.6-4.06 2.58-4.09 2.53-3.15 2.47-2.08 2.45-2.07 2.48-3.86 2.5-7.15 2.07m66.87-60.19 3.91 3.41.02 2.53-.94 2.38-1.14 2.37-.81 2.35-.19 2.33.5 2.35 1.1 2.38 1.52 2.45 1.77 2.52 1.84 2.58 1.84 2.62 1.82 2.64 1.82 2.64 1.79 2.63 1.68 2.62 1.45 2.6 1.12 2.58.82 2.55.66 2.52.71 2.49 1 2.47 1.4 2.43 1.82 2.35 2.1 2.19 2.12 1.97 1.78 1.78 1.38 1.73 1.87 1.93m-35.3-69.07-1.06 2.86-.95 2.26-1.4 2.38-1.68 2.56-1.55 2.67-1.14 2.7-.63 2.64-.27 2.58-.14 2.54-.24 2.54-.43 2.53-.62 2.53-.69 2.51-.63 2.51-.46 2.52-.29 2.52-.19 2.52-.21 2.51-.3 2.48-.4 2.44-.37 2.38-.2 2.34.1 2.32.41 2.31.68 2.32.84 2.37.93 2.41.93 2.43.81 2.36.56 2.2.34 2.09.15 2.48M63.13-24.16l.71 3.14.42 2.08.38 2.14.36 2.47.35 2.75.32 2.87.27 2.86.21 2.79.14 2.67.06 2.53.01 2.39-.04 2.26-.07 2.17-.1 2.17-.14 2.25-.18 2.39-.27 2.52-.37 2.59-.47 2.6-.55 2.54-.53 2.41-.38 2.29" filter="url(#a)"/><path d="M63.13-24.16 64.16-21l.93 2.11.93 2.2 1 2.52 1.03 2.78.97 2.89.86 2.87.79 2.79.71 2.67.61 2.53.48 2.41.29 2.32.11 2.27-.08 2.29-.21 2.34-.32 2.42-.4 2.5-.43 2.55-.45 2.56-.45 2.56-.42 2.55-.37 2.52-.29 2.51-.19 2.49-.11 2.47-.03 2.39-.03 2.28-.14 2.07-.38 1.87-.77 1.93m-4.85-74.58-.44 2.85-.85 2.81-.4 2.54-.2 2.47-.19 2.47-.13 2.47.04 2.44.26 2.45.43 2.45.43 2.48.27 2.5-.02 2.5-.38 2.51-.73 2.49-1.02 2.46-1.21 2.44-1.28 2.42-1.22 2.42-1.07 2.42-.9 2.41-.82 2.4-.86 2.38-1.08 2.35-1.39 2.34-1.67 2.35-1.84 2.39-1.83 2.48-1.69 2.53-1.44 2.45-1.09 2.17-.71 1.37" filter="url(#a)"/><path d="m62.31-27.87.32 2.83-.08 2.89-.35 2.75-.08 2.59.26 2.52.3 2.49.01 2.48-.45 2.46-.88 2.46-1.13 2.47L59.09.56l-.92 2.51-.6 2.51-.29 2.51-.12 2.49-.1 2.48-.24 2.45-.46 2.44-.7 2.43-.94 2.43-1.13 2.41-1.29 2.41-1.4 2.39-1.46 2.37-1.5 2.38-1.55 2.38-1.6 2.4-1.69 2.41-1.73 2.4-1.72 2.34-1.58 2.22-1.35 2.09L35.56 53l-1.26 1.9-1.72 1.74-2.16 1m31.89-85.51 1.28 2.83 2.24 2.88 3.03 2.74 3.65 2.59 4.22 2.52 4.62 2.49 4.48 2.47 3.65 2.46 2.31 2.45.8 2.47-.52 2.48-1.43 2.5-1.85 2.52-1.86 2.5-1.57 2.49-1.11 2.47-.59 2.45-.03 2.44.57 2.42 1.2 2.43 1.88 2.41 2.53 2.4 3.05 2.39 3.33 2.37 3.22 2.36 2.73 2.37 1.9 2.4.97 2.44.17 2.44-.46 2.38-1.03 2.23-1.46 2.03-1.06 1.85-.01 1.49" filter="url(#a)"/><path d="m61.79-29.28.91 2.74 1.15 2.66 1.41 2.45 1.6 2.33 1.62 2.39 1.44 2.56 1.1 2.72.72 2.82.37 2.82.15 2.77.07 2.67.11 2.55.25 2.43.45 2.35.64 2.29.76 2.31.79 2.35.71 2.42.54 2.5.31 2.54.05 2.57-.21 2.57-.46 2.55-.68 2.53-.82 2.51-.82 2.5-.69 2.47-.51 2.4-.48 2.28-.69 2.08-.89 1.88-.75 1.93" filter="url(#a)"/><path d="m61.79-29.28 1.27 2.75 2.09 2.66 2.22 2.46 2.05 2.34 1.89 2.4 1.83 2.57 1.8 2.73 1.62 2.82 1.23 2.82.63 2.77.01 2.67-.48 2.55-.71 2.44-.65 2.36-.4 2.32.01 2.32.48 2.37.96 2.44L78.99 19l1.6 2.54 1.64 2.57 1.5 2.56 1.22 2.55.91 2.54.65 2.5.44 2.48.2 2.42-.12 2.35-.51 2.24-.73 2.1-.52 1.98.2 1.91.98 1.96.87 2.15-1.46 2.52" filter="url(#a)"/><path d="m61.79-29.28 1.04 2.71 1.74 2.64 2.17 2.43 2.21 2.29 2.12 2.34 2.24 2.51 2.72 2.7 3.33 2.8 3.82 2.83 4.07 2.78 4.12 2.68 4.01 2.55 3.72 2.41 3.28 2.29 2.73 2.2 2.29 2.19 2.18 2.26 2.44 2.39 2.95 2.52 3.53 2.6 4.1 2.61 4.59 2.55 4.48 2.42 1.16 2.3" filter="url(#a)"/><path d="m61.68-30.33 1.07 2.54 1.04 2.75 1.02 2.79.8 2.7.54 2.61.39 2.53.32 2.5.26 2.48.2 2.46.1 2.46.01 2.47-.05 2.48-.07 2.5-.06 2.51-.03 2.51.01 2.49.04 2.47.01 2.45-.06 2.43-.14 2.43-.24 2.43-.33 2.41-.39 2.41-.41 2.38-.43 2.36-.48 2.36-.59 2.37-.74 2.4-.91 2.46-1.03 2.48-1.04 2.41-.95 2.25-1 2.04-1.6 2.29m4.74-83.61 5.45 2.53 5.02 2.73 1.6 2.79-.37 2.69-.63 2.6-.26 2.52.06 2.49.25 2.47.48 2.45.89 2.45 1.37 2.45L77.32.31l2.01 2.5 2 2.5 1.79 2.5 1.48 2.49 1.17 2.46.99 2.44.98 2.42 1.24 2.42 1.75 2.42 2.41 2.42 2.99 2.4 3.11 2.38 2.51 2.34 1.21 2.3-.04 2.25-.18 2.32.99 2.71 1.05 4.18" filter="url(#a)"/><path d="m60.33-34.09 5.01 2.05-.08 2.59-.35 2.69.26 2.62.86 2.49 1.35 2.44 1.75 2.49 1.96 2.59 1.9 2.71 1.66 2.78 1.38 2.79 1.24 2.75 1.29 2.66 1.45 2.56 1.63 2.46 1.7 2.38 1.64 2.34 1.42 2.34 1.06 2.38.58 2.43v2.5l-.57 2.54-1.04 2.56-1.26 2.57-1.12 2.55-.67 2.54.01 2.51.7 2.48 1.23 2.43 1.44 2.35 1.29 2.24.82 2.11.11 1.99-.67 1.92-1.18 1.95-1 2.16.55 2.52M59.6-36.21l.92 2.97.74 2.7.62 2.68.58 2.71.55 2.72.51 2.67.45 2.61.39 2.56.31 2.51.25 2.49.18 2.46.1 2.47.04 2.47L65.2.29l-.11 2.5-.17 2.51-.22 2.51-.26 2.49-.3 2.47-.33 2.45-.39 2.44-.44 2.43-.5 2.42-.55 2.42-.62 2.41-.67 2.39-.72 2.35-.79 2.34-.87 2.34-.96 2.4-1.09 2.5-1.18 2.62-1.23 2.63-1.51 2.94" filter="url(#a)"/><path d="m59.54-35.9 1.33 1.8 1 2.17 1.41 2.47 2.07 2.58 2.37 2.56 2.2 2.49 1.73 2.44 1.23 2.47.8 2.57.53 2.68.42 2.76.47 2.79.64 2.75.9 2.68 1.15 2.56 1.29 2.45 1.31 2.34 1.18 2.28.94 2.28.71 2.32.5 2.41.36 2.5.25 2.56.15 2.59.1 2.57.16 2.55.34 2.52.57 2.5.68 2.44v2.3" filter="url(#a)"/><path d="m59.6-36.04 2.26.97 1 2.1.99 2.45 1.16 2.61 1.5 2.69 1.97 2.69 2.38 2.66 2.52 2.61 2.38 2.56 1.96 2.51 1.4 2.49.83 2.47.37 2.46.14 2.47.21 2.48.51 2.5.93 2.51 1.33 2.5 1.54 2.5 1.51 2.47 1.22 2.44.75 2.44.19 2.42-.32 2.43-.65 2.42-.74 2.42-.62 2.39-.41 2.35-.37 2.3-.59 2.26-.81 2.33-.65 2.72-1.08 4.18M58.77-37.97l.55 1.92.5 1.95.35 2.2-.09 2.42-.67 2.52-1.11 2.53-1.25 2.48-1.16 2.44-1.02 2.48-1.01 2.57-1.15 2.67-1.32 2.75-1.34 2.79-1.11 2.75-.68 2.69-.19 2.57.1 2.45.08 2.34-.28 2.26-.88 2.24-1.5 2.3-1.96 2.4-2.14 2.51-2.04 2.59-1.79 2.61-1.56 2.57-1.48 2.52-1.67 2.53-2.75 2.75" filter="url(#a)"/><path d="m58.04-40.01 1.08 2.73.81 2.08.81 2.22.79 2.43.76 2.56.71 2.65.66 2.67.61 2.65.53 2.6.45 2.56.36 2.51.28 2.48.21 2.46.15 2.46.12 2.45.07 2.47.03 2.5v2.5l-.05 2.51-.09 2.49-.16 2.47-.21 2.43-.27 2.41-.34 2.42-.4 2.43-.46 2.43-.54 2.43-.62 2.44-.65 2.38-.7 2.43M57.91-40.7l2.85 2.39 2.05 2.09.59 2.08.28 2.23.69 2.39 1.42 2.49 2.22 2.51 2.86 2.47 3.16 2.46 3.04 2.48 2.55 2.57 1.84 2.67 1.14 2.74.66 2.78.52 2.76.75 2.69 1.28 2.58 1.92 2.46 2.44 2.33 2.57 2.25 2.17 2.23 1.32 2.28.36 2.4-.19 2.52.08 2.61 1.05 2.63 1.87 2.57 1.45 2.44-.04 2.32" filter="url(#a)"/><path d="m57.91-40.7 5.19 2.39 3.25 2.09-.2 2.08-1.07 2.23-.52 2.39.4 2.49 1.18 2.51 1.71 2.47 1.98 2.46 1.98 2.48 1.78 2.57 1.47 2.67 1.16 2.74.95 2.78.86 2.76.92 2.69 1.11 2.58 1.37 2.46 1.67 2.33 1.86 2.25 1.84 2.23 1.54 2.28 1.02 2.4.54 2.52.37 2.61.56 2.63.78 2.57.77 2.44 1.63 2.32M56.75-42.96l.36 2.29.57 2.24.18 2.14-.34 2.15-.61 2.27-.45 2.39.02 2.47.5 2.5.72 2.48.63 2.49.29 2.52-.1 2.6-.37 2.67-.41 2.74-.28 2.76-.06 2.74.13 2.67.18 2.58.11 2.47-.08 2.37-.28 2.32-.5 2.3-.7 2.35-.92 2.41-1.15 2.5-1.38 2.56-1.57 2.59-1.64 2.58-1.64 2.56-1.58 2.53-1.54 2.51-1.56 2.51-1.46 2.53-1.18 2.76" filter="url(#a)"/><path d="m56.75-42.96-3.3 2.3.69 2.24.95 2.14.39 2.17-.24 2.27-.54 2.4-.47 2.48-.19 2.5.15 2.49.4 2.5.52 2.53.46 2.61.27 2.68-.04 2.74-.38 2.75-.68 2.73-.87 2.67-.88 2.57-.75 2.47-.55 2.4-.36 2.34-.28 2.34-.28 2.37-.4 2.43-.55 2.49-.71 2.55-.91 2.57-1.11 2.58-1.31 2.56-1.45 2.54-1.45 2.53-1.35 2.52-1.29 2.5-1.48 2.45-1.85 2.33-2.08 2.05-2.27 1.59m23.29-92.13 1.65 2.23 1.52 2.44 2.03 2.34 2.45 2.28 2.41 2.32 1.93 2.43 1.28 2.52.79 2.61.6 2.64.67 2.63.87 2.59 1.06 2.56 1.18 2.51 1.23 2.48 1.21 2.46 1.16 2.44 1.12 2.45 1.14 2.46 1.28 2.49 1.54 2.51 1.86 2.52 2.09 2.52 1.99 2.45 1.42 2.38.58 2.37.06 2.54.39 2.72.53 1.87" filter="url(#a)"/><path d="m55.88-44.76 1.18 1.93 1.84 2.15 1.78 2.17 1.23 2.14.85 2.18.83 2.27 1.09 2.38 1.45 2.46 1.82 2.47 2.12 2.48 2.35 2.49 2.44 2.52 2.4 2.59 2.24 2.67 1.99 2.73 1.71 2.77 1.44 2.74 1.23 2.68 1.05 2.58.89 2.47.73 2.37.51 2.3.27 2.28.03 2.32-.15 2.41-.14 2.51.09 2.58.5 2.6.92 2.58 1.13 2.55.79 2.54-.29 2.56-1.18 2.47" filter="url(#a)"/><path d="m54.68-47.17 2.77 1.43.6 1.6.82 1.94 1.25 2.15 1.34 2.25 1.2 2.29 1.04 2.35 1.03 2.44 1.14 2.52 1.23 2.59 1.24 2.62 1.13 2.62.99 2.61.88 2.56.82 2.53.81 2.49.82 2.47.85 2.46.87 2.46.89 2.47.9 2.5.87 2.51.8 2.53.67 2.51.49 2.46.21 2.41-.13 2.4-.41 2.45-.37 2.44v2.07l.35 1.34" filter="url(#a)"/><path d="m53.6-49.1 1.31 2.08 1.81 2.05 2.29 2.09 2.17 2.13 1.69 2.14 1.3 2.17 1.13 2.21 1.15 2.3 1.18 2.37 1.13 2.44 1.06 2.46 1 2.49 1.04 2.5 1.2 2.55 1.43 2.6 1.71 2.67 1.98 2.72 2.25 2.75 2.52 2.73 2.79 2.67 2.99 2.58 3.08 2.49 3.01 2.39 2.73 2.34 2.3 2.32 1.78 2.35 1.26 2.42.8 2.5.46 2.56.26 2.59.23 2.59.39 2.56.59 2.54.62 2.53.4 2.51.4 2.53 1.53 2.77" filter="url(#a)"/><path d="m52.18-51.85 2.3 3.45 3.55 2.23 4.86 1.95 4.52 2.03 3.19 2.15 2.14 2.23 1.97 2.29 2.26 2.37 2.42 2.44 2.09 2.52 1.35 2.59.51 2.62-.05 2.62-.17 2.6.14 2.57.75 2.54 1.45 2.51 2.15 2.48 2.73 2.47 3.13 2.47 3.29 2.48 3.16 2.5 2.81 2.52 2.36 2.51 1.94 2.51 1.68 2.47 1.59 2.44 1.58 2.43 1.65 2.43 1.7 2.44 1.67 2.43 1.55 2.46 1.8 2.51 3.97 1.8" filter="url(#a)"/><path d="m52.18-51.85 1.91 3.44 1.53 2.23 1.87 1.94 2.16 2.01 2.17 2.14 1.96 2.22 1.66 2.28 1.35 2.35 1.14 2.43 1.06 2.51 1.14 2.58 1.35 2.61 1.69 2.62 2.06 2.6 2.41 2.57 2.61 2.52 2.53 2.5 2.12 2.46 1.46 2.46.8 2.45.39 2.46.41 2.49.73 2.52 1.06 2.55 1.09 2.53.89 2.46.81 2.32 1.16 2.3 1.22 2.74-.8 4.03M51.89-52.12l7.2 1.46 2.42 2.19 2.91 2.07 2.94 1.97 2.4 2.01 2.19 2.1 2.52 2.18 3.13 2.23 3.59 2.29 3.71 2.37 3.52 2.47 3.16 2.55 2.84 2.61L97.06-21l2.55 2.6 2.49 2.55 2.44 2.51 2.52 2.47 2.78 2.39 3.37 2.28 4.75 2.35 6.94 2.76M48.83-57.06l1.04 1.81.9 1.64.91 1.9.96 2.08 1 2.15.99 2.15.94 2.14.87 2.13.83 2.15.79 2.16.76 2.21.74 2.28.71 2.34.64 2.4.57 2.44.48 2.45.4 2.48.3 2.5.22 2.57.14 2.65.08 2.74.03 2.79-.02 2.79-.04 2.75-.08 2.66-.12 2.5-.18 2.33-.25 2.14-.31 2.05-.34 2.13-.4 2.33-.49 1.8" filter="url(#a)"/><path d="m48.83-57.06 17.48 1.8 3.74 1.63-1.81 1.89-2.13 2.07-1.06 2.14.06 2.14 1.19 2.13 2.32 2.12 3.27 2.13 3.74 2.15 3.71 2.19 3.33 2.25 2.98 2.33 2.91 2.4 3.21 2.43 3.77 2.44 4.28 2.44 4.57 2.46 4.62 2.52 4.55 2.63 4.51 2.76 4.49 2.84 4.33 2.86 3.95 2.81 3.42 2.76 2.69 2.68 1.99 2.51 5.18 2.09m-97.68-68.3 1.1 1.04 1.38 1.8 1.36 1.98 1.32 2.05 1.3 2.09 1.26 2.09 1.2 2.08 1.12 2.08 1.03 2.1.98 2.16.96 2.2.97 2.27.98 2.35.97 2.42.94 2.49.89 2.56.83 2.6.8 2.61.78 2.6.8 2.58.79 2.54.73 2.51.61 2.47.43 2.46.23 2.46.05 2.46-.08 2.49-.11 2.53-.05 2.6.11 2.65.24 2.55.2 2.06-.2 1.6" filter="url(#a)"/><path d="m43.4-63.49 2.46 2.02 2.17 2.05 1.67 1.95 1.5 1.87 1.46 1.87 1.43 1.94 1.41 2.02 1.41 2.09 1.48 2.11 1.53 2.13 1.55 2.13 1.47 2.13 1.33 2.16 1.17 2.2 1.06 2.26 1.04 2.33 1.05 2.39 1.13 2.42 1.19 2.45 1.25 2.44 1.3 2.45 1.34 2.52 1.31 2.63 1.21 2.76 1.02 2.87.83 2.87.69 2.83.56 2.79.27 2.82-.15 2.61M43.4-63.49l11.5 2.01 5.88 2.03 3.53 1.95.99 1.85-.14 1.85.24 1.92 1.24 2 1.98 2.07 2.26 2.11 2.27 2.11 2.39 2.11 2.79 2.12 3.38 2.12 3.96 2.16 4.32 2.22 4.41 2.3 4.3 2.4 4.15 2.46 4.02 2.45 3.93 2.37 3.86 2.28 3.82 2.28 3.71 2.51 2.94 3.08 2.22 4.04" filter="url(#a)"/><path d="m42.99-63.97 1.65 1.9 1.49 1.67 1.39 1.67 1.34 1.79 1.33 1.91 1.3 1.99 1.27 2.05 1.2 2.06 1.14 2.06 1.09 2.07 1.03 2.09 1.01 2.13.97 2.18.95 2.23.92 2.31.88 2.39.84 2.46.8 2.55.74 2.61.69 2.63.65 2.62.6 2.59.55 2.54.48 2.5.39 2.41.27 2.32.2 2.36.28 2.79" filter="url(#a)"/><path d="m41.38-65.91 1.91 1.9 2.39 1.82 2.49 1.72 2.14 1.73 1.72 1.81 1.51 1.91 1.48 1.98L56.54-51l1.49 2.06 1.4 2.07 1.3 2.08 1.25 2.11 1.23 2.14 1.2 2.19 1.14 2.25 1.03 2.32.93 2.4.9 2.48 1 2.55 1.19 2.6 1.39 2.62 1.51 2.62 1.41 2.58 1.15 2.55.83 2.5.64 2.45.73 2.43.98 2.45 1.12 2.54.96 2.6.69 2.38" filter="url(#a)"/><path d="m40-66.91 1.29 1.41 1.66 1.88 1.69 2.01 1.53 2 1.27 1.96 1.01 1.91.84 1.91.77 1.96.78 2.02.81 2.07.82 2.1.82 2.12.81 2.13.78 2.14.77 2.16.72 2.2.68 2.26.6 2.33.5 2.38.36 2.43.21 2.44.05 2.44-.07 2.44-.11 2.5-.08 2.63-.02 2.78.01 2.9-.03 2.89-.14 2.8-.29 2.8-.72 3.28" filter="url(#a)"/><path d="m37.82-69.17 1.86 1.85 1.75 1.74 1.81 1.86 1.85 1.95 1.87 1.97 1.84 1.92L50.58-56l1.69 1.88 1.58 1.92 1.47 1.98 1.41 2.04 1.37 2.07 1.32 2.1 1.25 2.1 1.14 2.1 1.07 2.08 1.06 2.07 1.14 2.1 1.29 2.19L67.84-29l1.54 2.51.95 2.33" filter="url(#a)"/><path d="m37.15-70.01 1.88 2.1 1.84 1.92 1.65 1.84 1.41 1.79 1.21 1.75 1.07 1.78 1.05 1.82 1.08 1.9 1.16 1.97 1.23 2.02 1.25 2.05L53.19-47l1.12 2.08 1.02 2.1.91 2.14.83 2.18.75 2.24.69 2.32.6 2.38.52 2.47.41 2.55.33 2.61.27 2.64.22 2.63.19 2.59.19 2.55.18 2.51.17 2.43.12 2.32.03 2.37-.27 2.8" filter="url(#a)"/><path d="m36.6-70.23 1.88 1.34 1.57 1.6 1.64 1.75 1.8 1.86 1.89 1.94 1.88 1.95 1.77 1.94 1.6 1.91 1.43 1.92 1.3 1.96 1.19 2L55.7-48l1.11 2.08 1.1 2.11 1.08 2.12 1.08 2.12 1.07 2.14 1.06 2.16 1 2.22.93 2.31.82 2.41.74 2.47.7 2.48.7 2.39.7 2.22.68 2.14.7 2.32.61 2.65" filter="url(#a)"/><path d="m34.55-71.71 2.92 1.38 4.64 1.46 4.29 1.6 3.24 1.73 2.28 1.85 1.64 1.92 1.46 1.95 1.69 1.93 2.1 1.93 2.43 1.93 2.56 1.96 2.5 2.01L68.59-48l2.08 2.09 1.9 2.11 1.82 2.12 1.83 2.13 1.9 2.15 2.04 2.17 2.2 2.24 2.38 2.31 2.59 2.4 2.89 2.46 3.17 2.46 3.26 2.39 2.92 2.31 2.17 2.3 1.58 2.52 1.97 3.09 3.48 4.06" filter="url(#a)"/><path d="m33.09-73.32 3.64 1.93 5.23 1.73 5.15 1.77 3.6 1.81 1.77 1.81.46 1.79-.04 1.78.1 1.8.64 1.84 1.29 1.9 1.94 1.97 2.43 2.01 2.74 2.04 2.86 2.06 2.87 2.09 2.85 2.1 2.95 2.15 3.22 2.19 3.61 2.24 3.95 2.32 4.09 2.39 3.92 2.47 3.48 2.55 2.94 2.61 2.49 2.64 2.27 2.63 2.22 2.6 2.15 2.56 1.89 2.51 1.36 2.43.91 2.33 1.41 2.38 2.74 2.8" filter="url(#a)"/><path d="m33.09-73.32 2.35 1.91 2.47 1.7 2.44 1.75 2.25 1.79 2.02 1.79 1.89 1.76 1.83 1.74 1.8 1.76 1.77 1.79 1.69 1.86 1.66 1.94 1.65 1.99 1.7 2.02 1.73 2.04 1.68 2.02 1.53 2.04 1.33 2.08 1.17 2.13 1.18 2.17 1.46 2.18 1.95 2.23 2.44 2.37 2.55 2.39" filter="url(#a)"/><path d="m32.99-73.23 1.63 1.43 1.66 1.4 1.62 1.48 1.64 1.58 1.67 1.7 1.71 1.81 1.69 1.89 1.63 1.92 1.53 1.92 1.42 1.9 1.32 1.9 1.26 1.93 1.21 1.98 1.18 2.04 1.13 2.08 1.07 2.1 1.01 2.1.95 2.11.89 2.09.83 2.06.79 2.06.76 2.17.77 2.45.82 2.8" filter="url(#a)"/><path d="m32.37-73.47 1.62.79 2.66 1.38 3.76 1.61 4.13 1.71 3.66 1.77 3.03 1.78 2.85 1.77 3.15 1.76 3.61 1.76 3.88 1.81 3.91 1.87 3.85 1.94 3.96 1.99 4.28 2.03 4.63 2.03L90-45.42l4.1 2.05 3.17 2.09 2.45 2.13 2.65 2.18 4.09 2.21 6.32 2.27 8.57 2.38 10.11 2.51 9.86 2.68" filter="url(#a)"/><path d="m31.11-74.56 1.81 1.35 2.11 1.4 2.47 1.44 2.56 1.51 2.43 1.63 2.37 1.73 2.58 1.83 3 1.89 3.38 1.93 3.47 1.94 3.22 1.94 2.78 1.96 2.36 1.98 2.12 2.02 2.07 2.07 2.11 2.09 2.09 2.12L76-41.6l1.75 2.16 1.54 2.17 1.5 2.22 1.67 2.26 2.02 2.33 2.43 2.39 2.74 2.43 2.84 2.44 2.68 2.45 2.4 2.46 2.11 2.52 1.93 2.63 1.88 2.78 1.79 2.9 1.62 2.91 1.56 2.82 1.7 2.8-.01 3.3M30.96-74.82l1.54 1.07 3.33 1.14 5.18 1.37 5.47 1.57 4.47 1.68 3.09 1.75 2.14 1.78 1.99 1.77 2.58 1.76 3.41 1.79 3.97 1.81 3.99 1.88 3.56 1.94 3.03 1.99 2.76 2.03 2.89 2.04 3.38 2.05 3.93 2.07 4.27 2.1 4.1 2.14 3.4 2.19 2.4 2.23 1.55 2.29 1.28 2.38 1.81 2.48 3.57 2.51 7.22 2.4" filter="url(#a)"/><path d="m30.05-75.09 2.01.8 3.95 1.15 4.17 1.31 3.04 1.4 1.8 1.49 1.17 1.6 1.32 1.7 1.96 1.8 2.73 1.87 3.29 1.91 3.48 1.92 3.31 1.92 2.88 1.92 2.39 1.96 2.04 1.99 1.92 2.04 2.08 2.09 2.38 2.1L78.64-42l2.92 2.11 3.18 2.11 3.59 2.12 4.19 2.15 4.73 2.25 4.89 2.43 4.47 2.65 4.11 2.96 5.53 3.72" filter="url(#a)"/><path d="m30.05-75.09 2.09.81 2.18 1.16 1.73 1.33 1.78 1.42 2.14 1.52 2.49 1.62 2.65 1.73 2.55 1.82 2.29 1.88 1.93 1.92 1.61 1.93 1.4 1.95 1.35 1.96 1.4 1.98 1.51 2.03 1.62 2.06 1.68 2.09 1.69 2.12 1.69 2.14 1.65 2.15 1.58 2.18 1.46 2.22 1.3 2.26 1.13 2.33 1.01 2.39.98 2.43 1.02 2.44 1.13 2.45 1.25 2.46 1.38 2.52 1.5 2.64 1.57 2.78 1.44 2.9 1.1 2.91.72 2.82.73 2.81 1.53 3.3M27.73-76.49l-2.06-1.34-1.86-1.06-1.7-.86-1.7-.74-1.75-.67-1.82-.61-1.9-.56-1.97-.51-2.06-.42-2.15-.35-2.23-.26-2.29-.18-2.32-.1-2.32-.02-2.3.06-2.26.14-2.22.2-2.19.27-2.19.35-2.2.41-2.22.48-2.25.55-2.26.62-2.28.69-2.31.76-2.31.83-2.32.89-2.39.98-2.95 1.26" filter="url(#a)"/><path d="m24.1-78.85-1.99-.83-1.88-.69-1.79-.64-1.83-.6-1.9-.55-1.96-.49-2.01-.42-2.03-.37-2.04-.29-2.04-.23-2.04-.14-2.03-.07-2.03.03-2.03.11-2.02.19-2.01.26-2.01.35-2.02.41-2.05.49-2.08.56-2.1.64-2.11.7-2.07.77-2.01.82-1.92.89-1.85.95-1.83 1.02-1.84 1.11-1.86 1.15-1.77 1.16-1.53 1.04-.97.69" filter="url(#a)"/><path d="m24.1-78.85-1.81-.82-1.8-.7L18.7-81l-1.85-.6-1.9-.55-1.94-.49-1.97-.43-2.01-.36-2.03-.3-2.09-.24-2.12-.15-2.18-.08-2.22.02-2.26.1-2.3.18-2.33.26-2.37.33-2.42.4-2.49.47-2.57.55-2.63.62-2.64.7-2.62.76-2.57.8-2.5.83-2.45.88-2.71 1.05-4.12 1.9" filter="url(#a)"/><path d="m22.97-79.42.83-.53-1.51-.66-2.26-.62-2.36-.6-2.27-.56-2.16-.51-2.12-.43-2.15-.34-2.24-.26-2.36-.17-2.47-.1-2.55-.02-2.56.06-2.52.13-2.45.2-2.42.26-2.43.33-2.54.41-2.66.47-2.75.54-2.74.58-2.78.65-3.12.82-3.7 1.2" filter="url(#a)"/><path d="m22.42-79.7-1.59-.75-1.44-.58-1.93-.59-2.08-.56-2.07-.49-2.06-.42-2.07-.37-2.09-.3L4.98-84l-2.13-.16-2.13-.09-2.14.01-2.15.09-2.15.17-2.15.25-2.13.31-2.15.38-2.22.45-2.34.53-2.47.61-2.53.7-2.54.74-2.53.73" filter="url(#a)"/><path d="m22.42-79.7-2.63-.75-2.36-.59-2.54-.6-2.33-.55-2-.49-1.79-.43-1.68-.35-1.61-.3-1.54-.22-1.45-.15-1.34-.06-1.26.02-1.22.11-1.21.2-1.27.26-1.33.35-1.37.41-1.34.49-1.2.56-.92.63-.55.7-.11.77.31.82.64.87.82.94.84 1.03.75 1.12.68 1.19.8 1.23 1.71 1.3" filter="url(#a)"/><path d="m19.92-80.47-3.07-1.14-2.18-.67-1.98-.49-1.98-.4-2-.35-2.03-.29-2.04-.23-2.07-.15-2.11-.07-2.16.02-2.2.1-2.22.19-2.23.26-2.23.33-2.24.39-2.27.47-2.35.54-2.46.62-2.58.7-2.71.76-2.83.82-2.81.95-2.48 1.16" filter="url(#a)"/><path d="m17.84-81.3-.97-.56-1.56-.63-1.86-.55-2.12-.42-2.32-.32-2.45-.23L4-84.16l-2.66-.08h-2.77l-2.87.08-2.95.14-2.99.22-3.04.28-3.12.34-3.33.42-3.66.49-4.07.54-4.39.61-4.59.68-4.84.77-5.46.82-6.23.82-5.58.78" filter="url(#a)"/><path d="m16.05-81.71-1.78-.83-1.93-.58-2.02-.41-2.08-.3-2.18-.21-2.31-.13-2.37-.05-2.39.02-2.37.11-2.33.17-2.32.25-2.31.32-2.3.4-2.27.46-2.25.53-2.23.61-2.24.68-2.29.76-2.35.83-2.42.92-2.45.99-2.44 1.05-2.41 1.11-2.38 1.17-2.41 1.21-2.5 1.28-2.66 1.35-2.83 1.44-2.99 1.53-3.14 1.6-3.26 1.65-3.35 1.69-3.39 1.73-3.23 1.79-2.85 1.91-2.61 2.23-3.35 3.09" filter="url(#a)"/><path d="m13.97-82.78-1.98-.45-1.96-.37-1.95-.28-2.12-.2-2.32-.13-2.47-.06-2.53.01-2.56.09-2.55.17-2.56.23-2.6.29-2.67.37-2.74.43-2.79.5-2.8.57-2.79.63-2.76.7-2.77.78-2.85.86-3.07.94-3.5 1.04-4.14 1.19-4.8 1.32-5.37 1.33" filter="url(#a)"/><path d="m9.05-83.89-1.67-.1-1.9-.15-2.19-.13L1-84.32l-2.29.03-2.28.11-2.27.18-2.26.25-2.25.31-2.22.38-2.2.46-2.2.52-2.26.58-2.38.66-2.55.73-2.69.81-2.83.89-2.9.97-2.96 1.06-3.02 1.12-3.08 1.16-3.17 1.14-3.3 1.08-3.49 1.06-3.81 1.18-4.7 1.44" filter="url(#a)"/><path d="M9.05-83.89 7.4-84l-1.9-.14-2.22-.12-2.29-.05-2.25.03-2.18.12-2.09.2-2.03.26-1.99.34-1.97.4-1.95.47-1.96.55-1.96.62-1.96.69-1.98.77-1.99.85-1.98.93-1.97.99-1.94 1.07-1.9 1.12-1.86 1.18-1.83 1.23-1.83 1.29-1.83 1.37-1.84 1.45-1.85 1.53-1.84 1.6-1.84 1.66-1.82 1.71-1.8 1.76-1.77 1.83-1.7 1.89-1.61 1.94-1.47 1.92-1.32 1.78-1.19 1.59-1.19 1.7" filter="url(#a)"/><path d="m8.15-83.64-2.03-.3-2.08-.26-2-.14-1.99-.03-1.99.07-1.99.17-1.95.24-1.9.31-1.87.38-1.87.45-1.86.52-1.86.59-1.83.67-1.78.73-1.72.8-1.63.85-1.59.91-1.54.98-1.53 1.05-1.53 1.1-1.51 1.17-1.5 1.24-1.46 1.3-1.41 1.39-1.36 1.47-1.28 1.52-1.21 1.55-1.23 1.65-1.48 1.99-1.6 2.31" filter="url(#a)"/><path d="m6.28-83.91-2.32-.34-2.08-.15-2.17-.02-2.24.07-2.23.17-2.18.24-2.19.31-2.33.36-2.55.44-2.79.5-2.93.59-2.94.65-2.87.71-2.81.78-2.8.82-2.88.89-2.99.94-3.11 1.03-3.22 1.1-3.3 1.15-3.32 1.14-3.32 1.03-3.32.67" filter="url(#a)"/><path d="m6.28-83.91-2.34-.34-2.05-.15-2.04-.02-2.07.09-2.07.18-2.06.25-2.08.32-2.15.39-2.25.46-2.38.53-2.5.61-2.58.68-2.61.74-2.62.81-2.6.87-2.6.93-2.58.99-2.58 1.06-2.6 1.12-2.68 1.19-2.83 1.26-3.08 1.33-3.34 1.4-3.55 1.48-3.64 1.55-3.66 1.63-3.66 1.7-3.75 1.78-3.9 1.84-4.05 1.87-4.02 1.92-3.44 1.98-1.01 1.33" filter="url(#a)"/><path d="m6.72-84.08-2.58-.24-2.8-.08-2.7.05-2.7.13-2.82.21-3.02.26-3.16.33-3.08.4-2.76.48-2.31.54-1.92.61-1.75.68-1.85.76-2.15.84-2.58.92-3.04.99-3.45 1.06-3.81 1.12-4.13 1.16-4.51 1.19-5.01 1.25-5.66 1.33-6.27 1.44-6.54 1.54-6.18 1.62-5.25 1.64-4.34 1.66-4.35 1.73-5.04 1.73-3.08 1.23" filter="url(#a)"/><path d="m3.55-84.38-1.77-.11-1.9.02-2.07.11-2.07.19-2.04.26-2.01.33-2.04.4-2.1.47-2.2.54-2.28.62-2.34.69-2.33.76-2.27.81-2.15.89-2.03.94-1.9 1.01-1.84 1.07-1.82 1.14-1.86 1.21-1.94 1.28-2.05 1.35-2.15 1.42-2.22 1.5-2.25 1.58-2.21 1.64-2.09 1.72-1.92 1.78-1.74 1.83-1.61 1.89-1.59 1.93-1.72 1.96-1.91 2.01-2.12 2.04-2.2 2.09-2.06 2.12-1.65 2.12-1 2.03" filter="url(#a)"/><path d="m.07-84.52-1.7.06-2.18.2-2.09.22-1.96.27-1.9.34-1.89.42-1.88.48-1.87.56-1.87.63-1.88.7-1.89.78-1.92.85-1.93.94-1.92 1.01-1.91 1.07-1.88 1.13-1.83 1.18-1.79 1.23-1.78 1.29-1.77 1.36-1.79 1.45-1.81 1.54-1.81 1.6-1.78 1.66-1.75 1.71-1.69 1.76-1.63 1.82-1.56 1.89-1.5 1.94-1.43 1.92-1.32 1.76-1.16 1.59-1.1 1.69" filter="url(#a)"/></g><path fill="none" stroke="#000" stroke-linejoin="round" stroke-width="3" d="M-10.73 29.04Q9.01 36.735-.86-4.942" filter="url(#a)"/><path fill="#CC669D" stroke="#000" stroke-linejoin="round" stroke-width="3" d="m-38.82 47.27.36 1.15.38 1.13.41 1.12.43 1.09.45 1.09.47 1.06.5 1.05.52 1.03.54 1.01.56.99.58.98.6.96.62.93.63.92.66.9.67.88.69.86.71.84.72.82.73.8.76.78.76.76.78.74.8.71.81.7.82.67.83.65.84.63.86.61.87.58.87.56.89.54.89.51.91.49.91.46.92.45.93.41.93.4.94.36.95.35.95.31.95.3.96.26.97.24.96.22.97.18.98.17.97.13.98.11.97.08.98.05.98.02h.97l.98-.03.97-.06.98-.09.96-.12.97-.15.96-.18.96-.21.96-.23.95-.27.94-.3.94-.32.93-.36.92-.39.92-.43.91-.45.9-.48.89-.52.89-.55.87-.58.86-.61.85-.65.84-.68.83-.72.82-.74.8-.78.79-.82.78-.85.76-.88.75-.92.73-.96.72-.99.7-1.02.68-1.06.67-1.1.64-1.13.63-1.17.62-1.2.59-1.25.57-1.28.55-1.31.54-1.36.51-1.39.49-1.43.46-1.47.45-1.51.42-1.54-.77.09-.77.09-.77.08-.77.09-.77.08-.76.09-.77.08-.77.07-.77.08-.77.08-.77.07-.77.07-.77.07-.77.07-.77.06-.77.06-.77.07-.77.06-.77.06-.77.05-.77.06-.77.05-.76.05-.77.05-.77.05-.77.05-.77.04-.77.05-.77.04-.77.04-.77.04-.77.03-.77.04-.77.03-.77.03-.77.04-.77.02-.77.03-.77.03-.77.02-.76.03-.77.02-.77.02-.77.02-.77.01-.77.02-.77.01-.77.02-.77.01-.77.01-.77.01-.77.01h-.77l-.77.01h-5.38l-.77-.01-.77-.01h-.77l-.77-.01-.77-.01-.77-.02-.77-.01-.77-.01-.77-.02-.77-.01-.77-.02-.77-.02-.77-.02-.76-.02-.77-.02-.77-.02-.77-.02-.77-.03-.77-.03-.77-.02-.77-.03-.77-.03-.77-.03-.77-.03-.77-.03-.77-.03-.77-.04-.77-.03-.77-.04-.77-.03-.76-.04-.77-.04-.77-.04-.77-.04-.77-.04-.77-.04-.77-.04-.77-.04" filter="url(#a)"/></svg>